<?xml version="1.0" encoding="utf-8"?>
<!-- Generator: Adobe Illustrator 15.0.0, SVG Export Plug-In . SVG Version: 6.00 Build 0)  -->
<!DOCTYPE svg PUBLIC "-//W3C//DTD SVG 1.1//EN" "http://www.w3.org/Graphics/SVG/1.1/DTD/svg11.dtd">
<svg version="1.1" id="Layer_1" xmlns="http://www.w3.org/2000/svg" xmlns:xlink="http://www.w3.org/1999/xlink" x="0px" y="0px"
	 width="800px" height="600px" viewBox="0 0 800 600" enable-background="new 0 0 800 600" xml:space="preserve">
<g>
	<path fill-rule="evenodd" clip-rule="evenodd" fill="#FFFFFF" d="M128.092,171.287c-6.976,2.012-8.936,9.043-19.265,7.706
		C98.638,164.225,126.679,153.481,128.092,171.287z"/>
	<path fill-rule="evenodd" clip-rule="evenodd" fill="#FFFFFF" d="M156.976,267.586c-2.289,8.21-9.81,14.942-15.405,21.182
		c-10.588,11.803-16.473,15.422-30.814,25.031c-1.529,1.03-3.785,2.426-5.774,3.85c-15.181,10.905-41.96,28.904-69.341,30.815
		c38.831-24.068,75.571-50.261,104.002-84.734C147.322,263.116,153.872,263.622,156.976,267.586z"/>
	<path fill-rule="evenodd" clip-rule="evenodd" fill="#FFFFFF" d="M659.639,583.439c-0.845,2.362-2.461,3.948-5.785,3.844
		C652.961,583.172,656.615,583.613,659.639,583.439z"/>
	<path fill-rule="evenodd" clip-rule="evenodd" d="M746.311,383.137c-7.395-10.065-4.216-23.843-3.856-34.673
		c0.648-19.609-0.295-35.731-1.929-59.696c-0.673-9.873,1.291-25.072-7.708-32.743c-8.837,2.658-5.942,14.312-5.769,19.262
		c0.284,8.104,2.398,16.289,1.93,25.034c-1.663,31.012-13.668,68.563-19.262,107.856c-3.227,22.614,1.053,44.986,1.928,67.393
		c0.562,14.583,1.929,29.42,0,42.381c-2.351,15.774-9.469,33.311,0,50.082c-3.868,12.812-16.771,16.61-23.125,26.953
		c-19.882,0-39.786,0-59.697,0c-9.954-4.923-7.377-10.493-17.326-15.405c-11.931-20.025,13.963-29.338,15.398-44.292
		c2.809-29.025,2.828-60.563,0-86.671c-4.539-42.148-42.785-59.371-65.481-82.82c-5.2-8.914-8.379-19.858-19.262-23.102
		c-7.378,11.96,6.788,17.084,7.715,26.958c-62.117,4.31-94.398-16.14-140.589-30.815c2.966-6.659,1.696-17.547,1.923-26.951
		c-9.399,5.999-8.745,22.063-19.262,26.951c-4.405,11.068-3.376,23.484-5.779,34.672c-1.634,7.605-4.249,11.851-5.778,21.18
		c-3.729,22.817-6.231,47.407-7.699,71.255c-0.543,8.803,1.245,16.633,0,25.043c-0.561,3.763-3.518,7.597-3.85,11.559
		c-2.353,27.855,15.491,55.711,1.917,78.969c-12.387,2.723-42.668,10.587-59.697,1.924c-6.827,0.207,4.09,6.358-1.928,5.768
		c-12.147-1.97-23.403-4.842-30.809-11.56c-6.299-18.66,11.779-29.918,15.405-44.279c2.388-9.486,1.099-24.88,0-34.679
		c-7.02-62.222-34.154-131.113-42.378-196.445c-3.083-24.557-0.414-47.232-5.776-69.329c0.435-5.989,9.587-3.25,15.411-3.85
		c21.543-17.625,34.248-44.073,53.924-63.555c-5.023-29.877-8.775-65.667-9.624-90.518c-0.211-6.116-7.938-12.008-11.556-17.336
		c-15.991,3.298-35.369-15.124-50.078-5.777c3.729,16.169,27.474,12.33,40.443,19.253c7.612,29.538,10.728,53.588,15.411,90.523
		c-2.441,3.335-6.511,5.043-5.776,11.562c-24.316,12.274-26.413,46.775-57.784,51.99c-11.11-6.219-11.536-23.125-19.252-32.74
		c-7.326,11.959,6.921,26.27,5.773,38.517c-1.962,20.998-26.361,25.111-42.372,36.601c-7.675,5.505-13.607,15.405-21.182,23.111
		c-13.152,13.365-25.005,26.326-40.442,36.594c-6.695,14.201-5.059,31.441-5.777,53.917c-0.417,12.752-7.673,20.826-3.856,34.666
		c0.935,3.371,7.389,5.178,3.856,9.638c17.374,9.381,28.396-8.132,32.741-23.113c9.851-0.47,15.619-15.126,25.037-9.626
		c10.877,6.255,3.512,30.098,1.923,32.739c-0.901,1.494-5.505,3.231-5.778,3.845c-1.271,2.85,2.603,3.591,1.928,5.779
		c-0.68,2.195-6.43,5.005-5.781,11.554c-14.917,15.029-41.402,30.734-65.474,21.19c-9.211-3.648-12.237-13.482-21.193-17.339
		c-13.622-29.964-9.272-60.24-17.328-90.511c-13.222,2.728-28.241,9.855-38.526,0c-1.59-24.462,24.473-33.398,40.446-46.231
		c8.901-37.415-0.542-91.007,5.777-134.806c1.525-10.558,3.353-25.621,7.71-34.672c10.013-20.824,31.832-27.506,44.295-46.221
		c2.536-3.361-0.379-6.766,1.925-11.547c0.845-1.754,6.843-3.895,7.706-5.786c3.751-8.229,3.886-20.078,7.702-28.887
		c1.511-3.495,5.962-5.945,7.699-9.631c3.705-7.83,2.581-12.06,7.706-17.333C166.176,9.514,178.458,1.027,212.826,5.66
		c10.731,1.442,25.118,7.06,36.595,11.551c14.915,5.846,27.251,19.56,46.227,13.479c2.77-0.886,5.458-4.569,9.627-5.774
		c19.197-5.551,46.211-6.333,65.473-9.633c32.853-5.609,66.75-11.316,98.225-9.623c17.304,0.923,35.749,6.489,52.005,9.623
		c16.477,3.19,33.149,4.876,46.214,9.633c17.896,6.512,34.019,17.217,53.923,21.19c0,5.14,6.098,4.184,5.779,9.622
		c39.347,8.814,53.715,42.592,80.894,63.556c9.214,17.751,18.966,34.974,30.814,50.075c7.864,15.896,11.624,35.525,19.257,52.002
		c-1.895,42.884,9.38,82.436,3.856,130.959C760.389,363.921,759.006,378.278,746.311,383.137z M108.828,178.993
		c10.329,1.337,12.289-5.694,19.265-7.706C126.679,153.481,98.638,164.225,108.828,178.993z M139.642,263.729
		c-28.431,34.473-65.171,60.666-104.002,84.734c27.381-1.911,54.16-19.91,69.341-30.815c1.99-1.424,4.246-2.819,5.774-3.85
		c14.342-9.609,20.226-13.229,30.814-25.031c5.596-6.24,13.116-12.971,15.405-21.182
		C153.872,263.622,147.322,263.116,139.642,263.729z M653.854,587.283c3.324,0.104,4.94-1.481,5.785-3.844
		C656.615,583.613,652.961,583.172,653.854,587.283z"/>
</g>
</svg>
