<?xml version="1.0" encoding="utf-8"?>
<!-- Generator: Adobe Illustrator 15.0.0, SVG Export Plug-In . SVG Version: 6.00 Build 0)  -->
<!DOCTYPE svg PUBLIC "-//W3C//DTD SVG 1.1//EN" "http://www.w3.org/Graphics/SVG/1.1/DTD/svg11.dtd">
<svg version="1.1" id="Layer_1" xmlns="http://www.w3.org/2000/svg" xmlns:xlink="http://www.w3.org/1999/xlink" x="0px" y="0px"
	 width="800px" height="600px" viewBox="0 0 800 600" enable-background="new 0 0 800 600" xml:space="preserve">
<g>
	<path fill-rule="evenodd" clip-rule="evenodd" d="M114.613,142.033c0.706,18.726-21.681,16.708-23.723,1.826
		C94.556,137.279,108.91,136.538,114.613,142.033z"/>
	<path fill-rule="evenodd" clip-rule="evenodd" d="M183.957,140.206c0.646,4.632,2.159,5.125,1.828,9.116
		c-1.984,23.702-35.117-3.309-16.427-10.944C173.538,136.672,177.06,138.912,183.957,140.206z"/>
	<path fill-rule="evenodd" clip-rule="evenodd" d="M207.679,160.284c9.996,7.632,11.597,23.671,20.07,32.834
		c-4.069,5.703-8.426-3.58-12.771-3.638c-9.616,1.335-8.723,13.171-14.597,18.236c2.604,10.083,19.23,19.69,9.116,31.02
		c-6.957-7.633-12.094-17.093-29.194-14.598C184.699,198.122,197.522,180.538,207.679,160.284z"/>
	<path fill-rule="evenodd" clip-rule="evenodd" d="M156.585,180.346c-0.445,12.994-13.629,12.519-12.778,23.731
		c0.76,9.918,10.576,7.155,14.598,18.235c-7.857-2.539-37.548,8.332-43.792-5.464c16.787-1.025,26.335-23.228,10.953-31.022
		C125.292,174.181,149.093,178.314,156.585,180.346z"/>
	<path fill-rule="evenodd" clip-rule="evenodd" fill="#FFFFFF" d="M134.683,280.719h3.652c-0.334,1.545,0.714,1.723,1.828,1.813
		v3.652c-1.552-0.326-1.724,0.712-1.828,1.824h-3.652c0.342-1.543-0.704-1.721-1.82-1.824v-3.652
		C134.416,282.872,134.58,281.833,134.683,280.719z"/>
	<rect x="583.578" y="477.783" fill-rule="evenodd" clip-rule="evenodd" fill="#FFFFFF" width="3.655" height="3.656"/>
	<path fill-rule="evenodd" clip-rule="evenodd" d="M229.578,85.461c34.963,21.74,29.441,77.806,52.917,107.658
		c51.316,15.561,98.102,16.868,147.812,5.478c29.653-6.801,52.184-21.102,91.227-20.077c27.725,0.729,55.363,15.847,69.351,38.33
		c3.324,5.345,4.648,11.523,7.294,16.423c8.343,15.387,22.063,33.428,36.5,47.447c14.36,13.93,30.773,28.753,47.445,34.661
		c23.524,8.362,50.132,1.78,62.044-16.424c-2.718-35.848,8.788-69.201,41.972-74.817c3.904,17.405,10.125,35.701,3.653,54.753
		c-0.379,1.057-3.759-0.728-3.653,1.827c0.416,10.854-23.546,19.986-27.373,34.661c-8.074,7.13-16.972,13.456-23.73,21.901
		c-33.1,14.436-74.296,2.482-98.532-12.77c-11.212-10.082-19.719-22.853-34.674-29.195c-8.404,10.367-5.511,30.694-7.296,51.086
		c-0.594,6.738-4.257,13.855-3.649,18.253c1.988,14.386,14.805,20.582,20.08,31.02c4.438,28.35-10.782,56.015-12.786,83.935
		c-1.428,19.928,5.719,40.331-5.469,54.756c-16.852,3.265-50.341,1.865-72.989,0c-5.371-15.73-4.764-29.69,5.468-38.331
		c6.695,0,13.376,0,20.075,0c5.925-25.23,15.609-49.806,5.48-71.164c-4.365-9.177-17.73-16.466-27.386-25.543
		c-4.471-4.216-8.208-8.363-12.77-12.77c-13.112-12.742-22.928-30.101-31.022-47.445c-5.034-10.814-7.838-23.545-21.891-29.195
		c-2.134,8.239,11.451,16.479,10.944,29.195c-42.182,9.499-83.984,42.737-133.203,41.963c-18.378-0.296-31.12-7.2-49.273-10.942
		c-4.458-14.404-4.887-32.836-14.601-41.983c-9.808,12.135,4.249,33.177-1.826,43.808c4.702,8.914,12.393,19.486,12.778,31.008
		c0.475,14.302-14.944,33.59-18.25,58.405c-3.006,22.588,5.896,41.627,0,54.743c-2.16,4.812-12.052,8.852-7.301,14.596
		c-21.502-1.01-47.147,2.136-65.688-1.824c-6.162-7.814-7.417-24.938-1.827-34.677c7.878-1.843,16.693-2.776,23.723-5.464
		c-2.568-22.814,10.01-44.037,9.124-63.874c-0.563-12.606-9.244-25.708-12.778-38.312c-1.366-4.904-0.364-10.305-1.819-14.601
		c-6.772-19.941-21.378-34.66-36.496-45.62c-1.574-7.276,2.728-13.481,0-16.42c-16.944,3.132-27.731,12.409-32.848,27.364
		c-33.605-35.742-82.33-56.356-100.366-107.661c-10.7-0.254-17.634-4.263-29.195-3.653c9.862-28.513-2.566-74.447,18.25-94.878
		C13.511,98.247,50.289,71.5,78.118,85.461c10.58-0.965,16.364-10.65,27.37-14.598c34.868-12.512,77.332-1.744,100.367,16.425
		C212.834,85.749,220.501,84.903,229.578,85.461z M58.046,96.414c-10.63,0.666-13.973,14.151-14.597,23.723
		c9.439,5.77,15.124,15.289,25.543,20.069c-7.862,5.821-20.21,2.778-31.023,1.827c-4.438,6.653-5.405,13.87-5.472,21.887
		c-0.029,3.669,5.154,6.834,5.472,10.961l-3.645,7.293c-1.062,8.849,0.017,17.746,0,25.542
		c16.002-5.274,21.667-20.897,34.668-29.197c-0.691-8.598,0.148-15.667,9.126-14.6c12.16,17.093,19.595,44.345,18.253,60.219
		c-6.915,3.55-9.886-0.251-18.253,1.828c-4.982,1.706-2.131,11.256-10.951,9.133c3.919-13.871,16.958-33.147-3.648-38.328
		c-18.592,14.33-11.151,55.538,10.947,60.216c4.122-2.568,1.5-11.88,9.125-10.943c10.515,11.997,5.077,39.931,31.022,36.488
		c6.046-11.927-7.418-15.743-10.953-23.719c-1.446-6.431-7.038-27.562,7.308-23.714c0,5.463,0,10.945,0,16.422
		c16.75,1.679,34.699,2.347,51.09,0c5.34-5.612-0.912-15.221,9.125-18.25c10.382,13.201-1.625,31.291-9.125,38.316
		c0,2.435,0,4.869,0,7.304c20.651,7.632,28.456-12.727,34.672-25.559c6.843-1.364,3.979,6.982,9.125,7.309
		c10.69-9.134,23.083-13.929,25.546-31.021c1.367-9.49-7.106-22.23,1.819-31.023c9.238,1.233,32.37,13.484,32.85-3.653
		c-13.611-6.46-13.254-26.88-16.425-43.794c-4.687-3.208-8.947-6.86-12.771-10.944c-7.774-1.604-16.187,5.583-21.896,0
		c6.098-10.871,17.859-8.361,20.07-20.069c2.443-12.951-6.472-23.353-16.425-23.723c-12.734-0.476-16.201,13.18-23.722,21.895
		c-8.46-10.394-23.524-14.191-43.794-12.778c-8.51,4.268-3.836,21.711-14.598,23.73c-2.026-10.746-4.165-21.384-10.944-27.375
		c-21.334-1.865-34.631,4.297-47.447,10.95C69.482,107.513,68.449,95.761,58.046,96.414z"/>
</g>
</svg>
