<svg version="1.1" id="Layer_1" xmlns="http://www.w3.org/2000/svg" xmlns:xlink="http://www.w3.org/1999/xlink" x="0px" y="0px"
	 width="800px" height="600px" viewBox="0 0 800 600" enable-background="new 0 0 800 600" xml:space="preserve">

<g>
	<path fill-rule="evenodd" clip-rule="evenodd" fill="#FFFFFF" d="M253.271,233.782c6.939,20.646-11.883,36.929-10.148,52.768
		c-13.698,14.718-35.087,21.739-56.822,28.408c20.486-23.947,58.985-24.873,58.852-71.015c-15.408-5.536-36.316-0.084-48.712,4.044
		c-9.021,15.493-18.912,40.414-34.502,42.626c7.664-22.115,21.3-38.235,36.534-52.768
		C218.027,237.945,238.879,232.544,253.271,233.782z"/>
	<path fill-rule="evenodd" clip-rule="evenodd" fill="#FFFFFF" d="M123.383,371.793c12.559,0.029,9.116,9.031,6.089,16.233
		c-3.381,0-6.768,0-10.15,0C114.944,380.378,122.5,379.437,123.383,371.793z"/>
	<path fill-rule="evenodd" clip-rule="evenodd" d="M762.673,528.063c-39.917,0-79.818,0-119.739,0
		c-7.331-36.797,31.911-34.52,54.801-46.674c14.332-20.25-7.005-31.229-4.063-48.701c25.088,7.029,45.202-3.585,60.891-12.193
		c4.695,6.507,6.542,13.758,12.175,20.299c4.907,5.713,17.228,8.489,14.204,16.237c-3.103,16.052-17.905,17.952-20.299,34.5
		C758.957,503.208,771.246,521.754,762.673,528.063z"/>
	<path fill-rule="evenodd" clip-rule="evenodd" d="M342.565,528.063c-29.762,0-59.53,0-89.293,0
		c-13.411-35.178,23.141-31.976,28.408-52.768c2.866-11.28-4.144-21.388-2.023-32.471c20.264-7.845,50.261-13.344,71.027,0
		C332.945,473.459,364.887,508.03,342.565,528.063z"/>
	<path fill-rule="evenodd" clip-rule="evenodd" d="M573.933,414.419c-37.547,9.283-98.97,16.333-133.948,0
		c1.126-13.873,17.493-20.958,22.331-34.505c8.438-23.684,9.147-68.704,2.032-97.427c-14.703-59.19-56.319-109.138-64.958-162.35
		c1.735,0.362,1.916-0.794,2.032-2.031c-0.083-3.47,1.521-5.254,4.062-6.094c31.645,13.526,87.598,18.217,133.948,14.22
		c19.999-1.735,51.361-15.146,71.029-10.157c14.139,3.585,47.684,49.973,54.801,66.973c12.204,29.147,16.467,77.445,14.208,107.565
		c-0.748,9.926-3.569,23.936-6.098,36.533C663.396,376.877,642.718,443.816,573.933,414.419z"/>
	<path fill-rule="evenodd" clip-rule="evenodd" d="M239.061,379.914c0.852-12.682,12.265-14.813,12.182-28.422
		c-8.556-2.412-15.84,13.89-20.298,22.328c-9.34,2.409-16.947,12.204-24.355,20.3c-6.366,6.953-16.377,15.095-20.288,22.331
		c-4.897,9.017-2.768,20.164-6.097,28.402c-4.714,11.68-17.248,26.495-26.384,32.474c-44.476,29.084-132.333,24.331-135.974-42.628
		C13.469,424.03,4.61,421.781,1.61,410.356c-4.036-15.412,1.345-38.88,22.331-36.536c13.064,1.453,13.962,15.708,26.375,16.237
		c9.15,0.396,24.18-14.815,28.415-24.343c10.217-23.025,3.496-54.771,12.181-77.133c3.067-5.053,13.431-2.806,16.239-8.125
		c0.524-16.317-20.118-28.406-28.419-42.611c4.017-14.931,4.369-33.51,10.149-46.675c18.598,1.026,25.155,14.073,36.534,22.312
		c1.511,17.443,5.303,32.589,10.15,46.694c19.091-6.541,31.593-25.102,46.674-40.595c27.225-27.964,54.056-59.08,81.184-89.302
		c13.443-14.98,29.597-32.126,42.618-42.615c8.267-6.668,31.909-19.305,48.707-12.185c5.732,2.444,25.912,32.219,30.439,44.658
		c8.787,24.146,12.387,52.256,24.361,77.112c17.836,37.064,38.779,63.948,42.611,113.665c1.356,17.604,1.075,40.264-2.032,52.768
		c-2.825,11.445-12.188,32.107-18.268,38.546c-21.452,22.761-63.47,22.364-107.557,24.361c-20.959,0.961-44.859,2.479-56.827-4.062
		C252.869,414.535,251.259,394.154,239.061,379.914z M198.473,237.845c-15.234,14.533-28.871,30.653-36.534,52.768
		c15.591-2.213,25.482-27.134,34.502-42.626c12.396-4.128,33.304-9.58,48.712-4.044c0.133,46.143-38.366,47.068-58.852,71.015
		c21.735-6.669,43.125-13.689,56.822-28.408c-1.735-15.839,17.087-32.123,10.148-52.768
		C238.879,232.544,218.027,237.945,198.473,237.845z M119.322,388.026c3.382,0,6.769,0,10.15,0
		c3.027-7.202,6.47-16.204-6.089-16.233C122.5,379.437,114.944,380.378,119.322,388.026z"/>
	<path fill-rule="evenodd" clip-rule="evenodd" d="M681.498,170.875c36.466,1.404,55.494,20.265,81.175,32.469
		c18.646,19.934,31.826,47.932,34.501,83.207c1.025,13.493-0.609,28.03,0,42.627c0.482,11.43,4.443,23.834,4.062,34.504
		c-0.362,10.072-4.902,22.458-6.09,32.47c-1.091,9.166,4.158,22.115-8.111,24.344c-17.74-4.325,0.316-38.167-12.188-50.733
		c-16.152,5.877-10.373,20.889-18.265,32.466c-16.945,24.908-61.145,32.19-101.475,20.299
		c19.552-28.834,33.112-63.882,38.563-107.568c3.979-31.812,3.184-69.415-2.031-99.44
		C688.783,199.049,675.65,184.945,681.498,170.875z"/>
</g>
</svg>
