<?xml version="1.0" encoding="utf-8"?>
<!-- Generator: Adobe Illustrator 15.0.0, SVG Export Plug-In . SVG Version: 6.00 Build 0)  -->
<!DOCTYPE svg PUBLIC "-//W3C//DTD SVG 1.1//EN" "http://www.w3.org/Graphics/SVG/1.1/DTD/svg11.dtd">
<svg version="1.1" id="Layer_1" xmlns="http://www.w3.org/2000/svg" xmlns:xlink="http://www.w3.org/1999/xlink" x="0px" y="0px"
	 width="800px" height="600px" viewBox="0 0 800 600" enable-background="new 0 0 800 600" xml:space="preserve">
<path fill-rule="evenodd" clip-rule="evenodd" d="M655.908,90.27c4.067,5.328-4.413,20.223,4.576,24.967
	c22.98-5.482,29.982-37.517,59.007-29.579c4.036,9.711,2.405,26.259,0.042,36.325c26.793,29.066,81.561,73.231,63.711,136.192
	c-4.919,17.321-19.206,40.004-36.31,36.354c-12.945-2.744-10.245-17.795-20.455-27.218c-42.729-3.396-73.423-18.854-102.219-36.225
	c-16.365,3.315-38.271,1.13-52.217,6.871c-8.304,6.131-8.851,16.548-13.6,24.978c-6.643,11.807-15.018,21.145-24.949,29.545
	c-4.021,7.345-6.8,15.924-9.067,24.999c-9.771,13.143-24.587,24.432-34.013,38.635c-4.914,7.367-3.43,19.186-13.605,22.728
	c-1.953,28.43-7.623,50.933-4.455,77.203c1.373,11.48,1.745,25.642,4.585,34.058c8.088,24.019,35.403,28.96,43.19,52.183
	c-3.998,0.553-5.184,3.907-4.532,9.092c-26.437,5.071-66.189,4.345-79.49-11.281c-0.01-18.562,3.756-45.745,2.195-74.931
	c-1.688-31.208-11.554-61.767-11.455-90.819c0.116-30.667,17.094-63.377,8.994-97.649c-17.96,11.335-9.44,32.244-20.397,49.977
	c-20.81-1.193-39.333,13.036-63.562,15.971c-50.365,6.062-107.505-5.291-138.538-24.847c1.221-21.694,11.682-45.485,4.462-68.12
	c-14.668,13.128-8.332,33.551-15.839,52.229c-5.888,14.664-20.585,27-29.473,40.913c-10.01,15.651-18.558,29.626-27.208,43.169
	c-21.111,19.01-45.924,34.323-68.074,52.311c-4.296,26.521,10.546,45.164,9.159,61.274c8.285,7.339,16.832,13.184,29.529,18.142
	c10.522,4.108,28.882,0.828,27.267,18.136c-12.57,13.582-54.9-1.129-79.469,6.911c-10.526-26.768-15.897-55.258-27.329-81.739
	c-3.917-9.048-11.048-17.943-11.387-24.946c-1.848-39.837,55.048-40.096,58.971-72.73c2.871-23.826-35.863-62.639-47.772-81.705
	c-2.821-4.506-3.742-10.946-6.825-15.875c-11.249-18.03-15.707-45.214-11.426-65.849c4.352-20.957,10.839-38.204,22.651-54.514
	c8.84-12.217,29.158-32.211,43.103-43.192c28.271-22.247,53.052-39.213,90.78-50.048c9.911-2.847,21.455-2.019,31.776-4.578
	c10.402-2.569,19.688-7.917,27.252-9.11c52.485-8.299,99.932-0.726,138.531,13.487c8.158,3.002,15.871,11.795,24.987,13.593
	c23.279,4.575,42.373-6.122,65.851-2.339c11.188,1.805,20.721,11.329,31.807,13.59c18.266,3.73,35.229-6.327,54.494-6.864
	c11.903-0.34,23.973,3.58,36.34,4.496C614.459,76.611,634.686,74.666,655.908,90.27z M710.494,183.312
	c7.646,10.112,26.825,8.154,22.704-11.384C722.641,164.833,712.026,174.153,710.494,183.312z"/>
</svg>
