<svg version="1.1" id="Layer_1" xmlns="http://www.w3.org/2000/svg" xmlns:xlink="http://www.w3.org/1999/xlink" x="0px" y="0px"
	 width="800px" height="600px" viewBox="0 0 800 600" enable-background="new 0 0 800 600" xml:space="preserve">
<g>
	<path fill-rule="evenodd" clip-rule="evenodd" fill="#FFFFFF" d="M184.013,86.187c1.079,13.55-7.546,17.395-10.199,27.205
		c8.673,16.147,24.462,19.64,27.197,39.102c5.135,36.448-24.104,64.899-54.406,66.313c-8.684-2.956-3.045-9.661-10.214-13.606
		c-12.773,3.712-5.534,21.141-18.688,25.515c-11.214,3.712-23.066-2.438-32.313-8.506c-0.119-6.102,1.374-13.84-3.403-15.307
		c-9.904-1.979-4.799,11.071-11.904,11.904c-33.429-1.086-51.327-25.481-49.312-56.108c1.104-16.539,9.024-32.742,20.413-42.508
		c-3.772-15.673-17.122-11.523-17.01-22.11c0.097-8.464,6.5-11.848,11.889-11.894c6.493-0.075,11.674,11.382,17.009,11.894
		c10.002,0.956,19.667-14.226,34.02-10.203c11.904,3.339,6.948,17.521,17.009,22.107c7.792,0.43,4.068-10.654,8.498-13.603
		c8.653-16.756,33.126-11.423,44.206,0C161.234,88.985,172.654,75.965,184.013,86.187z M175.513,126.99
		c-1.27-1.844-5.505-2.097-8.508-5.105c-4.826-4.821-5.814-12.89-11.905-8.493c-1.37,11.565,10.102,10.288,8.501,22.099
		c-6.938,6.662-14.338,12.863-20.398,20.409c3.075,3.732,12.27,1.321,11.897,8.498c2.053,13.184-13.837,16.281-10.196,25.499
		C186.566,203.547,191.425,150.146,175.513,126.99z M58.178,113.392c-24.007,11.314-32.803,49.446-15.293,74.822
		c9.34,4.243,17.942,11.038,28.899,5.082c-6.105-9.184-14.792-15.792-17.005-28.898c5.698-5.064,16.722-4.818,20.408-11.904
		c-6.896-6.702-20.248-6.971-23.812-17.002c1.258-9.512,11.255-10.292,11.9-20.401C61.104,114.992,60.924,112.903,58.178,113.392z
		 M64.978,126.99c2.038,7.03,7.567,10.561,17.009,10.199C90.487,125.188,69.59,115.72,64.978,126.99z M131.299,135.491
		c6.067,7.471,15.726,0.522,20.401-3.403C149.568,118.451,130.111,120.12,131.299,135.491z M92.186,162.699
		c3.683,5.39,12.878,5.271,10.214,16.991c-3.743,8.748-18.577,6.371-22.114,15.312c16.464,6.527,36.959,7.586,52.715,0
		c-5.116-14.263-20.894-4.071-23.805-17.009c-2.131-9.498,11.915-11.382,8.508-22.093
		C107.833,156.803,92.865,152.598,92.186,162.699z"/>
	<path fill-rule="evenodd" clip-rule="evenodd" d="M144.904,189.896c-3.642-9.217,12.249-12.314,10.196-25.499
		c0.373-7.177-8.822-4.766-11.897-8.498c6.061-7.546,13.461-13.748,20.398-20.409c1.6-11.812-9.872-10.534-8.501-22.099
		c6.09-4.396,7.079,3.672,11.905,8.493c3.003,3.008,7.239,3.262,8.508,5.105C191.425,150.146,186.566,203.547,144.904,189.896z"/>
	<path fill-rule="evenodd" clip-rule="evenodd" d="M63.275,115.089c-0.645,10.109-10.642,10.89-11.9,20.401
		c3.564,10.031,16.917,10.3,23.812,17.002c-3.687,7.086-14.71,6.84-20.408,11.904c2.213,13.106,10.9,19.715,17.005,28.898
		c-10.957,5.956-19.559-0.839-28.899-5.082c-17.51-25.376-8.714-63.508,15.293-74.822C60.924,112.903,61.104,114.992,63.275,115.089
		z M51.375,130.386c0.101-2.926-1.303-4.355-3.407-5.102C47.885,128.209,49.282,129.647,51.375,130.386z"/>
	<path fill-rule="evenodd" clip-rule="evenodd" d="M81.987,137.189c-9.442,0.362-14.972-3.168-17.009-10.199
		C69.59,115.72,90.487,125.188,81.987,137.189z"/>
	<path fill-rule="evenodd" clip-rule="evenodd" d="M151.7,132.087c-4.675,3.926-14.333,10.874-20.401,3.403
		C130.111,120.12,149.568,118.451,151.7,132.087z"/>
	<path fill-rule="evenodd" clip-rule="evenodd" fill="#FFFFFF" d="M47.968,125.284c2.104,0.747,3.508,2.176,3.407,5.102
		C49.282,129.647,47.885,128.209,47.968,125.284z"/>
	<path fill-rule="evenodd" clip-rule="evenodd" d="M117.704,155.9c3.406,10.71-10.64,12.595-8.508,22.093
		c2.911,12.938,18.689,2.746,23.805,17.009c-15.755,7.586-36.25,6.527-52.715,0c3.538-8.941,18.371-6.565,22.114-15.312
		c2.665-11.72-6.531-11.601-10.214-16.991C92.865,152.598,107.833,156.803,117.704,155.9z"/>
	<path fill-rule="evenodd" clip-rule="evenodd" fill="#FFFFFF" d="M484.98,177.993c1.743,21.752,3.444,57.524,0,83.337
		c-7.538-0.817-8.455,2.34-13.605,0c-4.15-26.522,0.127-58.275-3.399-81.641C469.666,175.264,481.278,175.163,484.98,177.993z"/>
	<path fill-rule="evenodd" clip-rule="evenodd" fill="#FFFFFF" d="M420.354,186.5c9.953,10.949,3.035,44.606,5.105,68.023
		c-5.351,2.389-10.188,7.176-16.998,3.402c0.951-14.519-2.165-48.408,1.698-69.712C415.36,189.445,415.166,185.273,420.354,186.5z"
		/>
	<path fill-rule="evenodd" clip-rule="evenodd" fill="#FFFFFF" d="M294.53,196.699c-1.668,37.606,4.019,58.869,0,90.127
		c-5.094,0-10.2,0-15.305,0c-2.022-31.811-4.582-74.539-1.701-93.53C282.943,189.135,290.772,193.912,294.53,196.699z"/>
	<path fill-rule="evenodd" clip-rule="evenodd" fill="#FFFFFF" d="M355.742,195.002c4.3,24.603,6.957,68.311,0,88.425
		c-4.351-1.841-8.105,5.165-10.188,0c-6.325-4.833-3.396-18.64-3.403-30.617c-0.022-19.151-1.015-40.251,0-52.703
		C342.046,193.77,349.719,195.195,355.742,195.002z"/>
	<rect x="755.337" y="268.119" fill-rule="evenodd" clip-rule="evenodd" fill="#FFFFFF" width="3.403" height="3.402"/>
	<path fill-rule="evenodd" clip-rule="evenodd" d="M195.907,75.98c3.728,6.789,5.926,24.279,0,30.608
		c8.172,12.804,16.886,25.063,20.409,42.504c7.068,6.192,16.875,6.386,25.51,8.505c29.317,7.198,61.164,23.98,100.325,22.091
		c24.316-1.153,52.726-2.888,76.523-8.485c11.562-2.746,17.518-6.684,33.99-8.505c19.777-2.186,35.504-10.206,59.514-6.799
		c52.843,7.482,66.888,57.541,96.926,91.806c2.295,2.631,6.609,5.134,10.198,8.52c12.191,11.442,27.079,29.148,49.312,32.306
		c45.941,6.509,78.202-22.313,93.519-61.217c8.911,6.714,3.119-2.597,8.507-5.105c9.227-0.739,13.802,3.198,18.713,6.807
		c6.62,26.664-10.546,45.57-23.817,61.205c-18.318,21.611-58.343,40.875-95.219,37.42c-42.104-3.957-68.292-38.796-98.617-56.12
		c-10.792,20.514-20.338,65.877,5.091,76.509c-4.061,35.563,4.263,96.844-22.092,115.633c0.508,9.821-8.173,16.938-15.309,23.816
		c-20.106,0.827-34.66-3.9-47.624-10.221c-1.553-10.827-8.979-18.555-6.785-28.898c2.771-13.096,19.182-19.04,34.004-15.31
		c7.741-14.005,12.345-35.995,6.8-52.708c-3.086-9.283-10.375-8.075-18.712-15.303c-10.026-8.691-22.315-27.549-28.898-42.505
		c-7.505-17.073-10.591-36.474-25.51-44.218c-5.43,3.926,3.635,7.586,1.71,13.606c-59.344,14.792-116.519,55.542-192.135,37.418
		c0.91-9.677,2.097-14.599,0-23.815c-6.927,2.253-7.545,11.475-10.211,18.711c-4.575,12.403-11.904,28.174-11.904,47.609
		c0,5.135,2.881,9.821,3.403,15.303c0.77,8.185-0.432,19.309,0,28.904c0.716,16.352,5.034,33.574,3.403,42.516
		c-4.563,24.932-42.534,36.004-69.717,20.391c-1.978-11.054-6.672-19.408-6.803-32.292c5.855-5.5,16.542-6.134,22.092-11.914
		c-0.329-37.422-4.684-84.048-18.689-115.622c-7.586-1.896-6.121,5.229-8.509,8.509c-29.582-12.938-40.822-44.208-52.707-74.831
		c-15.454,1.385-28.03-8.273-42.517-13.595c-10.691-3.937-18.719-5.604-28.899-10.199C16.27,217.75-3.299,189.453,2.074,154.199
		c1.616-10.614,7.43-20.26,10.199-30.616C0.75,105.506,5.022,75.689,25.875,72.577c8.214-1.224,17.503,6.867,27.197,6.796
		c11.259-0.071,26.063-8.904,44.222-8.494c11.274,0.247,24.861,2.165,35.706,3.4c6.426,0.73,13.83,4.063,18.7,3.402
		c7.669-1.048,11.669-9.292,18.711-10.206C182.394,65.931,186.473,72.397,195.907,75.98z M156.805,96.381
		c-11.08-11.423-35.553-16.756-44.206,0c-4.43,2.949-0.707,14.033-8.498,13.603c-10.061-4.586-5.105-18.768-17.009-22.107
		c-14.353-4.023-24.018,11.158-34.02,10.203c-5.335-0.512-10.516-11.968-17.009-11.894c-5.389,0.045-11.792,3.43-11.889,11.894
		c-0.112,10.587,13.237,6.437,17.01,22.11c-11.389,9.766-19.309,25.97-20.413,42.508c-2.015,30.627,15.883,55.022,49.312,56.108
		c7.105-0.833,2-13.883,11.904-11.904c4.777,1.467,3.284,9.206,3.403,15.307c9.247,6.068,21.099,12.218,32.313,8.506
		c13.154-4.374,5.915-21.802,18.688-25.515c7.169,3.945,1.53,10.65,10.214,13.606c30.302-1.415,59.541-29.865,54.406-66.313
		c-2.735-19.461-18.524-22.955-27.197-39.102c2.653-9.811,11.278-13.655,10.199-27.205
		C172.654,75.965,161.234,88.985,156.805,96.381z M467.976,179.689c3.526,23.366-0.751,55.119,3.399,81.641
		c5.15,2.34,6.067-0.817,13.605,0c3.444-25.813,1.743-61.585,0-83.337C481.278,175.163,469.666,175.264,467.976,179.689z
		 M410.159,188.214c-3.863,21.304-0.747,55.193-1.698,69.712c6.811,3.774,11.647-1.014,16.998-3.402
		c-2.07-23.417,4.848-57.074-5.105-68.023C415.166,185.273,415.36,189.445,410.159,188.214z M277.524,193.296
		c-2.881,18.991-0.321,61.719,1.701,93.53c5.105,0,10.211,0,15.305,0c4.019-31.258-1.668-52.521,0-90.127
		C290.772,193.912,282.943,189.135,277.524,193.296z M342.151,200.107c-1.015,12.452-0.022,33.552,0,52.703
		c0.008,11.977-2.922,25.784,3.403,30.617c2.083,5.165,5.836-1.841,10.188,0c6.957-20.114,4.3-63.822,0-88.425
		C349.719,195.195,342.046,193.77,342.151,200.107z M755.337,271.521h3.403v-3.402h-3.403V271.521z"/>
</g>
</svg>
