<svg version="1.1" id="Layer_1" xmlns="http://www.w3.org/2000/svg" xmlns:xlink="http://www.w3.org/1999/xlink" x="0px" y="0px"
	 width="800px" height="600px" viewBox="0 0 800 600" enable-background="new 0 0 800 600" xml:space="preserve">

<path fill-rule="evenodd" clip-rule="evenodd" d="M415.598,195.192c2.086-6.495,21.295-3.979,29.092-9.1
	c11.735-7.693,12.269-22.314,20.006-34.536c-20.447-13.509-40.59-27.301-45.455-56.363c2.383,0.637-4.558-2.59-1.968-2.16
	c3.431-2.368,0,0,0.148-5.121c-2.061-34.787,14.262-51.184,29.088-69.089c13.218-3.06,21.103-14.974,34.538-18.183
	c22.241-5.313,42.438,4.717,65.466,9.085c18.393,17.787,37.94,49.36,21.823,81.828c10.27,12.739,23.546,15.641,29.094,29.092
	c3.698,8.996-3.05,24.355,9.084,30.91c-1.052,3.802-4.513,5.18-3.637,10.905c4.275-0.577,1.076-8.611,7.276-7.266
	c-4.542,7.578,5.714,6.336,9.086,10.91c16.115,19.294,20.272,30.732-1.82,47.273c-6.094,4.558-13.598,11.988-19.989,12.729
	c-18.453,2.117-26.087-13.172-38.193-20.005c-9.738,0.574-19.383,1.212-27.271,3.639c-20.996,29.887-8.953,87.982-29.093,118.186
	c-1.967,2.945-3.949,10.163-7.266,14.543c-14.426,19.002-34.357,25.854-50.917,43.64c-3.698,16.366-14.203,32.908-16.364,52.726
	c-0.681,6.304,1.479,13.702,0,20.002c-1.393,5.936-6.614,9.027-9.085,14.547c-7.386,16.427-10.242,44.525-9.102,61.822
	c0.709,10.584,2.932,23.663,12.725,32.735c0.683,3.09-1.404,3.415-3.623,3.623c7.722,2.057,17.756,12.433,16.363,29.092
	c-16.363,0-32.73,0-49.098,0c10.45-16.985-14.499-24.593-14.543-39.996c-0.03-8.745,9.337-10.639,10.905-19.991
	c1.419-8.419,3.461-22.938,5.458-36.373c2.001-13.437,4.514-30.407,3.643-38.178c-1.359-11.954-11.958-22.27-10.92-34.55
	c0.578-6.718,7.722-12.255,9.101-18.187c5.71-24.815-5.313-47.248-9.101-72.729c-4.202,7.308-0.623,22.404-1.82,32.73
	c-26.535,9.81-61.826-0.502-85.456-5.461c3.817-17.046,3.757-27.462,1.82-41.816c-7.534,3.876-5.255,15.434-7.267,23.63
	c-1.922,7.755-5.517,15.418-7.281,21.829c1.26,4.884-3.757,3.506-5.458,5.458c-0.503,12.816-8.404,18.261-9.085,30.896
	c-4.38,3.509-7.222,8.541-10.906,12.744c-3.375,46.477,1.509,94.422,10.906,121.81c7.503,21.903,44.392,25.022,32.73,58.183
	c-15.151,0-30.303,0-45.455,0c3.832-23.23-9.353-29.447-16.368-41.816c9.471-49.513-13.451-91.478-32.73-123.634
	c18.88-37.82-17.033-60.98-30.914-92.736c-4.321-9.883-2.557-19.53-10.906-27.269c-4.835,1.227-9.26,2.857-12.724,5.444
	c-11.365-36.415-1.035-80.602,27.539-106.584c6.821-6.215,15.137-14.252,24.475-16.234c-0.741,0.727-1.334,1.597-2.189,2.264
	c14.188-10.149,33.19-7.737,49.498-6.496c19.813,1.509,39.27,5.784,58.861,8.864c16.367,2.575,33.412,9.471,47.278,9.101
	c18.602-0.516,32.968-12.077,50.917-16.368H415.598z M479.242,57c-0.103-1.909-2.338-1.434-1.819,1.823
	c0.397,1.419,1.523,2.112,3.624,1.815c15.123,3.065,22.285,14.089,36.373,18.188C519.743,56.393,498.359,52.472,479.242,57z
	 M466.518,104.278c5.934,2.531,12.044,4.913,19.991,5.462c16.423-14.222-0.83-37.659-21.813-36.373
	C458.48,83.31,463.513,94.129,466.518,104.278z M562.875,142.456c1.379,4.691,5.803,6.317,12.729,5.462
	C586.093,138.181,565.644,130.102,562.875,142.456z"/>
</svg>
