<svg version="1.1" id="Layer_1" xmlns="http://www.w3.org/2000/svg" xmlns:xlink="http://www.w3.org/1999/xlink" x="0px" y="0px"
	 width="800px" height="600px" viewBox="0 0 800 600" enable-background="new 0 0 800 600" xml:space="preserve">

<path fill-rule="evenodd" clip-rule="evenodd" d="M475.896,250.76c2.278,9.224,10.257,16.552,12.481,26.209
	c0.946,4.093-0.933,10.043,0,13.719c2.47,9.727,9.67,24.49,11.229,37.438c0.45,3.646-0.892,6.538,0,9.98
	c2.56,9.857,11.127,18.814,12.481,29.945c2.102,17.394-4.381,29.549-11.232,43.67c-11.352-12.141-17.086-34.786-12.479-51.154
	c2.263-8.053,5.039-8.57,4.994-17.474c-0.108-20.461-5.535-45.389-17.476-57.392c-7.916,7.867-4.649,17.141-4.985,28.696
	c-2.352,0.933-0.86,3.726-3.746,1.246c2.906,13.699-2.903,26.737-4.988,39.925c-1.217-0.028-0.971-1.521-1.241-2.496
	c-2.653-0.13,2.268,9.556-2.503,4.998c-0.182,17.739-6.194,43.609,8.732,58.642c-2.53,8.759-4.246,18.011-11.231,24.957
	c-0.953,4.701,1.527,5.96,1.252,9.983c-6.835,3.899-2.853,28.424-11.229,29.942c6.101,15.412-13.75,53.998,1.243,76.105
	c-8.951,2.783-11.393,19.988-11.227,33.688c-9.177,6.952-19.741,3.061-32.432,3.744c0.271-0.009,6.688-14.214,7.543-15.601
	c3.061-5.007,6.443-9.803,9.438-14.849c3.052-5.143,5.822-10.488,7.472-16.267c1.882-6.573,0.806-12.813,1.866-19.307
	c1.045,0.045,2.361-0.333,3.423-0.163c-6.628-1.077,1.342-16.346-2.296-18.659c-0.261-0.17,0.448-0.937,0.589-1.017
	c1.217,0.508,2.108,1.483,2.755,2.688c-3.74-25.562,7.41-52.736,0.394-77.782c-2.286-8.184-1.087-18.838-3.737-28.699
	c-1.668-6.181-7.26-10.743-9.982-16.214c-10.929-21.963-19.739-45.987-29.951-69.868c0.357,0.856-15.656,2.991-17.043,3.132
	c-13.434,1.32-19.307-3.294-24.128-15.613c-4.248,26.775-7.002,54.305-3.746,81.103c1.463,12.022,9.543,21.8,11.232,32.441
	c1.649,10.405-3.282,18.177-2.499,28.696c0.796,10.654,1.92,21.279,3.101,31.895c0.574,5.177,1.173,10.348,1.757,15.521
	c0.44,3.892,3.029,9.391,0.938,13.137c-0.542-0.233-1.268-0.233-1.814-0.515c5.739,4.914,3.516,16.979,4.486,23.597
	c1.109,7.579,3.247,15.709,10.255,19.924c-10.029,17.933-0.729,44.345-23.711,44.922c-1.94-0.3,0.741-4.64-2.497-6.246
	c-1.767,4.103-7.548,9.282-13.724,5c7.218-18.436,21.95-29.319,22.458-48.668c0.198-7.566-4.113-15.367-4.991-22.459
	c-4.036-32.687-2.275-74.268-19.962-96.073c-1.397-1.726-0.796-8.615-0.882-10.853c-0.144-3.502-0.15-7.029,0.192-10.52
	c0.575-5.87,2.856-12.577-0.333-18.09c-0.316,0.118-0.812,0.271-1.167,0.38c1.921-0.581-3.333-11.896-3.672-13.076
	c-1.284-4.461-2.78-8.857-4.525-13.158c-3.499-8.632-8.002-16.777-12.341-24.999c-8.934-16.921-17.684-34.985-21.231-53.918
	c-2.441-13.045-2.474-27.262-0.956-40.427c-5.119-8.197-12.504-14.121-18.723-21.213c0-1.665,0-3.328,0-4.99
	c-29.096-32.681-14.805-107.149-38.679-143.495c-0.642-5.468-0.39-4.097-1.247-8.732c-19.109,1.78-32.058,8.219-46.166,7.489
	c0.256,7.787-12.542,13.434-19.963,13.723c-5.841-7.499-6.09-12.676-1.249-19.961c7.253-3.146,12.427-5.659,17.47-9.984
	c9.603-8.24,9.535-22.395,17.464-28.701c5.694-4.523,13.98-3.108,19.968-8.731c6.417-6.449-3.518-20.704,2.493-22.456
	c6.241,1.285-0.044,17.657,9.983,17.465c6.19-3.793,10.207-9.754,19.962-9.981c2.438,12.834-3.869,16.926-7.483,23.703
	c19.643,18.623,38.784,37.743,42.421,72.37c13.357,24.493,19.796,55.903,47.415,66.133c0.013,2.479,3.404,1.585,2.493,4.991
	c11.216,6.518,22.081,13.624,33.518,19.755c5.495,2.946,10.95,6.004,16.76,8.299c3.81,1.506,8.507,2.155,12.722,3.119
	c4.118,0.944,7.715,3.195,11.734,4.159c3.703,0.89,7.531,1.211,11.174,2.373c6.223,1.981,12.3,4.427,18.135,7.361
	c11.588,5.825,22.327,13.6,30.709,23.556L475.896,250.76z M421.005,227.056c-3.943-11.449-21.202-9.58-27.456-18.714
	c0.352,2.842-0.297,4.686-2.495,4.993c-29.971,2.106-36.871-18.863-58.642-24.96c-7.645-10.652-23.794-12.803-33.688-21.207
	c-4.279-12.215-2.317-21.715-12.472-32.442c-8.395,1.594-14.185,5.784-19.969,9.981c-3.515,24.578,8.149,44.065,19.969,57.395
	c-2.748,3.079-2.777,8.875-4.998,12.477c5.407,8.737,18.502,9.783,24.958,17.468c1.37,13.185,5.307,23.81,4.988,38.679
	c13.629,6.985,20.004-4.988,28.696-9.983c9.811,8.082,18.109,17.668,29.952,23.711c8.101-5.199,19.522-7.097,26.194-13.728
	c-2.736-1.767-4.751-5.483-6.231-8.734c-4.777-10.448-8.667-29.315-2.497-41.176c9.188,2.164,14.244,2.118,23.706,4.994
	c8.572,14.281,17.997,49.435-8.728,46.167c-0.416,5.4,6.902,3.077,6.235,8.729c-9.344,17.02-1.189,41.775,8.732,52.407
	c6.596-9.414-9.691-29.527-3.738-42.424c4.732,4.365,7.441,7.148,16.214,4.998c1.655,12.254,12.044,25.634,6.237,37.426
	c3.867,1.859,6.874-0.364,9.983-2.499c0.828-8.73-5.708-25.293-4.991-33.681c4.991-0.416,6.928,2.225,12.481,1.246
	c7.455-10.203,2.444-35.649,6.234-48.66c-10.733-8.403-24.075-14.192-34.943-22.462 M196.413,42.392
	c3.777,4.662,14.965,2.804,13.719-4.99C205.024,33.615,196.524,34.696,196.413,42.392z M248.816,77.328
	c0.486,6.58,3.377,10.76,4.988,16.221c14.827,3.458,10.06-14.892,4.988-18.72C253.917,74.109,251.552,75.906,248.816,77.328z
	 M265.04,123.493c5.011,0.857,7.123-1.192,11.226-1.25c0.658-7.061,0.227-7.468,0-14.973
	C265.382,97.603,261.391,115.314,265.04,123.493z M282.504,183.384c10.625-10.384,3.436-29.119-3.742-38.679
	C271.246,153.368,273.901,174.596,282.504,183.384z M322.435,212.083c5.263-24.815-13.798-25.302-26.207-32.441
	C288.541,199.362,308.023,206.921,322.435,212.083z M294.979,209.584c-2.202,2.636,8.117,11.101,11.233,4.993
	C304.329,211.306,298.312,207.479,294.979,209.584z M321.186,264.49c5.815-2.921,9.264-8.207,12.476-13.73
	c-1.93-7.63-3.18-15.947-4.989-23.704c-4.256-1.574-9.922-1.732-13.728-3.742C318.383,235.684,319.01,250.857,321.186,264.49z
	 M419.756,276.969c1.598,11.117,16.924,12.936,27.443,11.232c1.141-10.929,2.38-21.752,4.998-31.202
	c-5.816-8.737-17.09-12.028-27.46-16.221C431.311,251.061,432.215,272.684,419.756,276.969z M313.695,294.432
	c1.416,5.413,1.777,16.643,11.229,17.467C335.365,304.262,324.698,281.183,313.695,294.432z M341.148,249.518
	c9.328-3.569,19.726-6.059,28.699-9.983c4.103-29.058-19.631-30.284-33.69-41.173C331.715,218.084,339.925,230.061,341.148,249.518z
	 M349.882,258.249c6.413,10.868,19.754,20.081,32.44,11.226c0.164-9.983-1.518-12.977-2.492-19.958
	C369.671,247.755,359.855,255.807,349.882,258.249z"/>
</svg>
