<svg version="1.1" id="Layer_1" xmlns="http://www.w3.org/2000/svg" xmlns:xlink="http://www.w3.org/1999/xlink" x="0px" y="0px"
	 width="800px" height="600px" viewBox="0 0 800 600" enable-background="new 0 0 800 600" xml:space="preserve">

<path fill-rule="evenodd" clip-rule="evenodd" fill="#FFFFFF" d="M608.001,91.455c0.803,9.312-6.079,10.925-6.367,19.11
	c11.245,10.967,33.981,17.195,33.968,31.858c-0.02,14.911-25.588,22.321-33.968,36.073c-19.637-0.882-35.279-5.77-48.839-12.73
	c-5.315-11.009,7.864-19.903,14.864-25.47c-2.413-19.063-8.837-34.996,4.247-48.841C582.229,90.543,598.545,86.45,608.001,91.455z"
	/>
<path fill-rule="evenodd" clip-rule="evenodd" fill="#FFFFFF" d="M624.979,465.106c14.482,11.417,29.268-7.283,29.717-23.339
	C639.95,444.698,630.224,452.67,624.979,465.106z"/>
<path fill-rule="evenodd" clip-rule="evenodd" fill="#FFFFFF" d="M578.275,484.205c10.699,12.255,28.721,17.597,25.474,38.22
	c24.267-3.469,1.002-33.031,0-44.589C593.361,474.536,580.678,470.479,578.275,484.205z"/>
<g>
	<g>
		<path fill-rule="evenodd" clip-rule="evenodd" d="M646.207,431.143c-7.629-5.556-13.52,5.294-21.228,6.37
			c-3.67,1.276,0.169,10.074-4.247,10.61c-0.329-2.492,0.369-6.035-2.115-6.355c-16.77,32.469-49.811,2.383-63.695-12.752
			c-4.161-26.284-28.184-51.08-38.214-78.544l-8.49-14.858c-12.519-20.043-24.62-40.493-36.091-61.571
			c6.82-22.964,2.838-42.643,4.247-72.185c18.628-9.453,22.35,10.625,38.206,10.625c7.512-4.523,3.665-20.409,14.868-21.238
			c7.879-0.096,5.173,10.389,12.736,10.614c9.56-0.344,15.461-11.043,25.475-12.741c11.813-1.994,23.372,4.397,33.975,2.127
			c17.112-3.661,24.287-18.572,33.968-29.709c6.459-7.464,16.104-13.341,16.979-23.364c-10.916-11.022-23.797-20.077-36.09-29.71
			c-1.15-11.053,4.075-15.736,4.242-25.481c-10.645-9.881-16.042-25.005-27.601-33.964c-3.084-11.775-2.913-26.825-10.609-33.978
			c-13.095-9.345-25.412,8.679-33.964,8.486c-10.606-9.452-18.674-23.082-36.09-21.217c-12.763,1.366-22.99,16.158-25.479,25.47
			c-1.887-7.442-5.391,1.677-6.373,2.127c-11.997,5.491-39.884,14.975-63.685,19.11c-24.716,4.275-47.981,1.191-65.812,8.472
			c0.768-0.311-1.67,1.837-4.244,0c0.64,25.974-36.447,18.799-53.074,21.238c-3.863,2.503-1.666,11.074-4.249,14.856
			c-20.189,9.73-34.121,20.98-48.826,33.964c-7.557,6.692-16.151,19.282-19.105,16.984c16.688,24.87,1.042,44.902-12.744,70.058
			c-8.749,15.983-20.748,30.25-27.59,42.472c-26.679,47.555-42.045,88.804-48.833,135.862c5.511-2.126,14.217-3.739,16.982,2.127
			c-0.252,6.112,1.163,13.902-2.126,16.983c4.039,28.198,15.701,65.944,16.989,78.557c2.911,28.39,17.841,51.408,31.849,80.657
			c13.067,3.804,21.15,9.314,23.346,19.109c50.68,0,106.746,0,161.347,0c58.669,0,129.138,3.097,171.953-4.242
			c-3.328-0.194-7.357,0.29-6.363-4.233c4.443,2.936,17.267-0.696,8.49,6.35c9.626,3.824,25.385,1.504,38.21,2.126
			c12.72-9.183,12.126-25.273,19.108-38.207c7.374-13.655,20.265-24.533,27.597-38.22c14.21-26.521,21.098-57.556,36.091-84.912
			C669.486,421.912,644.337,424.157,646.207,431.143z M567.659,140.296c-2.413-19.063-8.837-34.996,4.247-48.841
			c10.323-0.912,26.639-5.004,36.095,0c0.803,9.312-6.079,10.925-6.367,19.11c11.245,10.967,33.981,17.195,33.968,31.858
			c-0.02,14.911-25.588,22.321-33.968,36.073c-19.637-0.882-35.279-5.77-48.839-12.73
			C547.479,154.757,560.659,145.863,567.659,140.296z M404.196,460.852c-19.181-16.348-25.17-53.438-2.127-70.057
			c15.406,4.2,40.684,47.372,48.83,70.057C437.38,466.729,419.264,460.348,404.196,460.852z M603.749,522.425
			c3.247-20.623-14.774-25.965-25.474-38.22c2.402-13.726,15.086-9.669,25.474-6.369
			C604.751,489.394,628.016,518.956,603.749,522.425z M624.979,465.106c5.244-12.437,14.971-20.408,29.717-23.339
			C654.247,457.823,639.462,476.523,624.979,465.106z"/>
	</g>
</g>
</svg>
