<svg version="1.1" id="Layer_1" xmlns="http://www.w3.org/2000/svg" xmlns:xlink="http://www.w3.org/1999/xlink" x="0px" y="0px"
	 width="800px" height="600px" viewBox="0 0 800 600" enable-background="new 0 0 800 600" xml:space="preserve">
<path d="M456.549,148.194"/>
<path fill="#FFFFFF" d="M417.827,145.865"/>
<path d="M249.302,134.039c18.389-15.867,45.072-21.979,68.001-26.609c7.561-1.529,19.18,2.418,26.576,4.223
	c9.22,2.248,18.262,5.179,27.221,8.3c18.281,6.37,36.294,13.575,55.051,18.49l98.1,1.51c14.988-4.001,33.684-3.584,50.265-4.438
	c20.141-13.865,41.947-26.052,62.085-39.91c14.771-3.818,41.478,1.365,47.307-16.257c5.88,0.456,7.422-3.417,13.302-2.961
	c3.524,6.822,7.835,12.867,8.867,22.171c13.176,9.83,30.243,15.261,39.915,25.133c5.016,5.123,2.71,12.04,4.438,16.263
	c7.557,18.442,29.606,19.855,39.906,36.956c-7.424,16.777-8.22,32.847-23.652,42.87c6.147,4.781-17.068,15.8-28.081,14.779
	c-8.161-0.759-17.822-8.964-29.566-10.346c-16.757-1.975-32.584,2.273-44.343-2.96c-25.524,30.014-33.636,62.279-72.428,75.392
	c-1.551,0.522-3.539,15.433-4.01,17.396c-1.291,5.425-2.541,10.864-3.892,16.271c-2.533,10.171-5.142,20.324-7.992,30.411
	c-2.878,10.184-6.31,20.177-9.444,30.268c-1.435,4.604-5.763,11.321-5.57,16.054c0.22,5.115,4.906,6.05,8.432,8.818
	c0.461-0.775,1.651-1.222,2.121-2.052c-0.377,0.646,15.373,2.123,17.387,1.092c8.706,10.854,6.711,23.366-1.475,34.003
	c-1.661,2.15-21.021,0-24.274,0c-7.507,0-17.496,2.229-24.709-0.327c-0.144-6.751-8.774-8.268-12.372-12.767
	c-4.261-5.335-6.517-14.477-6.45-21.194c0.134-10.886,0.897-21.757,0.821-32.673c-0.133-21.582-1.19-43.147-1.501-64.729
	c-0.191-12.771-0.107-25.551,0.495-38.311c-14.325,0.373-9.243,18.944-16.271,29.564c-54.575,4.564-89.308-20.264-133.034-33.997
	c-0.475-13.537,3.915-18.897-2.962-26.609c-10.421,2.816-6.098,16.897-7.392,23.65c-3.074,16.102-13.023,27.169-17.737,41.388
	c-5.119-0.792-3.351,8.499-7.392,4.439c4.33,4.356-5.741,9.054-8.482,10.465c-6.684,3.443-10.172,9.614-16.697,13.239
	c-4.5,2.49-10.243,4.83-11.778,10.293c3.291,22.824,9.304,42.922,23.657,54.692c7.024-3.167,13.527-3.385,20.692,0
	c-0.308,6.917,3.93,7.825,4.433,11.826c4.571,35.849-40.834,21.988-66.525,20.695c-5.563-0.298-7.052-12.061-7.971-15.936
	c-0.873-3.674-1.444-7.549-2.74-11.104c-1.495-4.098-4.133-5.972-6.487-9.578c-3.397-5.188-5.864-11.224-7.256-17.263
	c-1.075-4.671-1.717-4.924-4.518-8.655c-5.788-7.718-5.478-18.188-10.934-26.157c0.795-12.873-0.417-27.893,16.261-28.083
	c8.035-12.441,7.102-29.121,4.149-42.991c-1.445-6.809-3.434-13.871-6.73-20.036c-1.955-3.65-5.125-6.677-6.786-10.479
	c-1.558-3.573-1.078-7.037-1.764-10.803c-0.586-3.242-2.556-5.99-3.335-9.161c-0.934-3.771-0.057-7.91-1.795-11.487
	c-0.574-1.193-48.1,21.78-52.791,23.77c-18.733,7.964-38.125,14.489-58.525,16.15c-8.255,0.673-16.507,2.971-24.838,2.195
	c-8.8-0.818-11.926-7.446-19.571-9.918c-0.466,1.347-1.246,2.965-1.102,4.53c-0.254-2.702-22.94-8.36-25.941-9.631
	c-8.508-3.578-15.742-8.908-18.269-18.226c-1.503,0.956-1.529,3.398-4.439,2.954c-16.89-15.911-31.038-33.348-26.605-60.608
	c-1.719-0.241-2.626,0.325-2.958,1.48c-4.229-10.179,4.066-40.541,17.74-32.523c-0.652-1.316-1.295-2.642-2.955-2.954
	c27.169-8.386,23.042,16.205,26.61,36.955c4.77,27.755,27.454,39.272,62.082,42.865c0.583,3.332,9.229-0.216,4.439,4.439
	c8.064-2.781,16.622-3.718,24.942-5.415c7.819-1.594,13.831-4.529,20.927-7.746c-0.145,0.876,0.074,1.803-0.115,2.682
	c9.548-6.647,18.375-12.554,29.633-16.133c21.298-17.135,39.234-37.628,57.651-57.647L249.302,134.039z M641.038,203.512
	c-6.65,19.325-15.331,38.172-28.08,51.74c-8.565,9.1-23.51,12.386-16.271,29.564c10.692,1.023,22.051-10.417,28.089-19.218
	c13.438-19.566,21.161-48.227,28.089-66.52c16.281,5.695,28.217,15.159,45.822,14.779c4.996-0.103,9.493-3.705,14.785-2.953
	c13.646,1.936,24.626,16.92,41.385,11.825c5.787-8.672,20.364-15.879,14.787-31.044c-31.662,4.072-59.945,15.989-84.261-10.347
	c-3.935-5.431-2.66-16.07-10.343-17.737C653.578,168.15,646.668,187.146,641.038,203.512z M677.994,119.256
	c11.096,4.275,16.857-7.123,22.177-13.307c-3.573-4.311-2.055-13.714-5.921-17.74C678.162,87.887,679.596,105.095,677.994,119.256z
	 M620.339,116.295c7.522,9.528,27.008,2.472,20.699-10.346C629.891,105.15,623.72,109.323,620.339,116.295z M317.303,116.295
	c-12.277,7.355-36.238,5.552-44.342,20.697c16.768,11.988,49.039,5.003,51.733-14.778
	C322.572,119.904,320.973,117.064,317.303,116.295z M621.814,135.513c-2.147-9.745-21.264-15.333-25.129-2.953
	c1.492,5.431,13.051,13.543,13.303,25.129c-8.856,26.557-53.135,16.957-50.258-13.305c-4.261,0.174-9.672-0.805-11.826,1.48
	C551.217,203.911,637.65,195.921,621.814,135.513z M577.479,144.385c-1.26,3.682-1.938,7.922-1.484,13.305
	c6.282,7.941,19.878,3.94,19.217-7.392C590.899,143.171,582.998,143.68,577.479,144.385z M714.958,145.865
	c-0.681,10.398,10.567,13.816,19.207,10.346C735.767,144.877,723.831,142.135,714.958,145.865z M478.431,153.252
	c4.822,18.35,41.301,13.334,44.346-2.955C510.387,145.485,493.502,149.503,478.431,153.252z M345.393,233.076
	c38.238-4.732,39.404-71.109-5.913-75.386c-29.728,1.761-52.906,47.959-23.654,65.041
	C318.937,224.365,331.904,234.749,345.393,233.076z M392.693,225.689c-0.828,21.744,29.572,20.061,35.478,1.474
	c-1.671-5.714-4.741-10.046-4.439-17.737C411.188,201.913,393.193,212.596,392.693,225.689z M278.867,219.777
	c-5.743-2.883-5.703-9.186-10.348-10.352c-24.219-6.081-11.939,28.564-1.478,35.477C276.725,242.266,279.71,232.931,278.867,219.777
	z M571.558,210.905c-22.527-0.855-33.467,10.315-25.13,29.564C567.851,263.699,600.535,226.068,571.558,210.905z M335.042,175.426
	c40.518-8.238,30.627,60.128-5.915,45.824C311.963,214.531,309.744,180.573,335.042,175.426z M327.657,203.512
	c3.797,12.187,28.237,8.492,23.65-11.826C339.633,181.354,323.732,190.941,327.657,203.512z M494.695,249.341
	c40.468-6.881,31.175-85.965-20.701-66.52C428.171,191.801,451.488,256.685,494.695,249.341z M476.954,193.166
	c7.23-2.231,17.169-1.13,22.168,1.48c-0.502-0.266,10.216,12.323,10.352,17.738c0.335,12.811-14.754,25.751-25.138,25.131
	C460.94,236.102,451.127,201.143,476.954,193.166z M487.296,225.689c2.382-2.051,4.681-4.192,7.399-5.912
	C493.109,183.062,452.352,223.307,487.296,225.689z"/>
</svg>
