<svg version="1.1" id="Layer_1" xmlns="http://www.w3.org/2000/svg" xmlns:xlink="http://www.w3.org/1999/xlink" x="0px" y="0px"
	 width="800px" height="600px" viewBox="0 0 800 600" enable-background="new 0 0 800 600" xml:space="preserve">
<path fill-rule="evenodd" clip-rule="evenodd" d="M755.332,494.973c14.515,9.698,26.107,22.319,39.826,32.788
	c2.579,7.472-13.796,7.763-4.673,14.062c-29.68,5.461-69.493,0.79-103.084,2.341c2.308-3.167,6.255-4.68,9.356-7.019
	c-28.853-32.078-55.548-66.297-79.646-103.098c7.264-13.029,20.025-20.576,30.456-30.449c3.767-0.66,4.045,2.208,7.031,2.325
	c11.903,11.748,14.087,27.089,23.412,39.833c12.014,16.415,30.967,28.35,39.827,51.556
	C730.523,501.68,744.217,498.553,755.332,494.973z"/>
<path fill-rule="evenodd" clip-rule="evenodd" d="M94.636,444.528c41.035-7.264,34.605,69.19,9.37,82.005
	c-46.294,13.519-69.132-8.22-86.69-39.832C7.5,469.013-2.504,433.639,5.6,407.047c6.32-20.729,33.623-47.367,51.542-53.907
	c60.267-21.946,122.898,29.785,156.98,53.907c11.715,8.285,24.259,18.133,37.494,25.759c27.309,15.78,61.139,32.698,103.085,30.463
	c15.516-0.834,40.628-5.163,46.851-18.74c7.432-16.208-5.079-39.188-7.024-56.234c-4.24-37.17,12.362-76.145,25.778-107.776
	c4.988-11.784,7.03-25.991,11.709-35.146c5.668-11.06,18.863-22.489,30.463-35.136c22.443-24.478,30.683-35.36,58.567-51.548
	c18.921-10.996,36.77-19.71,58.573-32.802c-30.34-72.736,67.233-89.363,114.808-63.256c5.718,15.357,12.736,29.416,21.081,42.176
	c-13.469,23.399,12.427,33.517,9.368,56.228c-5.105,38.141-62.806,34.777-93.707,16.394
	c-17.526,29.699-13.139,92.578-14.056,131.212c-10.204,9.268-17.41,30.424-30.463,30.451c-16.001,0.032-12.208-16.557-25.784-25.76
	c-15.774,9.513-21.448,37.907-18.74,58.574c22.896,7.489,39.005-22.088,58.573-32.814c6.062-3.322,14.274-3.322,21.093-7.019
	c17.422-9.474,54.521-40.405,72.635-11.729c2.436,32.687-32.467,55.53-56.228,79.66c-11.361,11.542-24.053,28.434-39.826,37.493
	c-21.216,12.162-80.158,28.615-44.519,60.913c3.464,3.141,11.838,10.43,16.395,11.71c12.014,3.404,28.351-4.654,39.833,0
	c20.802,8.459,8.078,25.261,25.771,37.493c-44.505-3.478-117.302,12.543-161.665,2.339c-13.402-3.076-20.233-16.49-30.443-18.747
	c-1.26-9.06,4.168-11.43,2.32-21.085c-42.141,1.125-90.821,18.662-138.227,4.691c-4.188,0.659-4.801-2.217-2.353-2.346
	c4.666-11.884-4.782,5.241-9.357-2.346c-31.277-12.266-62.276-31.304-91.375-53.882c-19.853-15.387-37.617-33.294-60.92-46.853
	c-23.723-13.814-78.509-28.143-98.4,2.327c-21.312,32.635,6.573,91.596,35.142,91.389c10.818-0.077,18.405-7.535,21.086-14.068
	C108.039,473.53,91.702,457.207,94.636,444.528z M652.254,81.368c-1.15,10.892,7.037,22.424-2.346,28.114
	c-14.832,5.877-23.678-10.808-35.143-9.37c-8.956,15.228,6.282,24.378,11.71,32.805c-0.434,7.377-12.62,2.992-11.71,11.71
	c-1.383,8.406,2.728,11.331,4.673,16.407c8.956,4.429,14.397-4.893,28.13-2.346c15.968,17.586,48.072,18.86,65.611,0
	c-0.298-20.023-14.818-25.811-21.1-39.83C718.981,96.367,677.896,58.983,652.254,81.368z"/>
</svg>
