<svg version="1.1" id="Layer_1" xmlns="http://www.w3.org/2000/svg" xmlns:xlink="http://www.w3.org/1999/xlink" x="0px" y="0px"
	 width="800px" height="600px" viewBox="0 0 800 600" enable-background="new 0 0 800 600" xml:space="preserve">

<path fill-rule="evenodd" clip-rule="evenodd" d="M366.701,165.393c3.32-1.638,8.135-1.667,11.729-3.359
	c3.629-1.705,5.916-5.825,8.388-6.694c2.605-0.926,7.55,0.558,10.053,0c11.82-2.68,21.158-10.915,38.561-6.716
	c19.814,4.805,50.546,42.268,77.111,20.124c0.792-0.669,1.188-12.756,2.493-15.263c1.672-3.248,4.67-8.546,7.864-10.524
	c4.219-2.632,13.237-0.217,16.653,2.894c4.751,4.328,0.739,14.475,8.197,16.18c8.896-2.479,8.935-11.267,8.385-16.765
	c-0.719-7.122-6.771-11.529-12.396-15.089c-4.31-2.742-8.006-6.291-12.179-9.222c-3.208-2.255-7.269-2.118-10.688-3.914
	c-3.397-1.806-6.452-5.115-9.106-7.847c-6.228-6.399-11.351-13.753-17.301-20.395c-5.562-6.195-11.031-12.458-16.498-18.735
	c-4.453-5.115-17.816-13.692-12.038-21.771c-0.628,0.887-5.831-7.928-6.15-8.829c-1.515-4.159-1.771-8.974-1.914-13.356
	c-0.273-8.075,1.378-17.704,7.742-23.329c2.374,0.137,4.748,0.273,5.028-1.676c22.799,12.96,27.435,44.094,56.998,50.287
	c8.355-9.114,0.564-31.009,13.408-38.555c16.418,4.814,2.645,39.823,21.797,41.91c11.813-5.509,4.52-30.124,23.465-28.501
	c6.299,14.205-8.051,38.26,3.356,43.589c11.543-7.461,11.673-26.33,26.824-30.177c9.201,15.99-9.615,45.143-3.362,65.379
	c3.446,11.144,16.567,11.186,24.932,16.698c0.003-6.617,8.089-3.998,11.957-6.635c11.302-7.721,10.715-26.218,25.148-30.173
	c7.777,3.215-0.108,11.992,6.708,15.088c16.908,1.256,11.224-20.067,20.113-26.821c15.853,1.715,5.008,29.971,0,38.551
	c-2.545,4.369-9.12,10.958-11.737,13.412c-22.626,21.161-58.099,23.659-95.554,20.11c-7.484,4.256-14.886,8.595-18.441,16.765
	c1.967,6.974,10.727,7.163,15.091,11.735c7.807,38.583,69.335,23.435,75.439,63.71c-3.979,9.962-0.444,28.705-11.74,35.202
	c-9.071-0.631-10.593,2.563-18.44,1.676c-10.276-1.143-18.135-12.087-25.146-11.732c-15.477,0.777-17.385,29.304-41.909,25.141
	c-11.82,9.973-1.164,42.433-18.444,46.948c-9.012-6.072-5.382-24.791-11.735-33.532c-6.028-4.028-17.69-2.415-21.79-8.376
	c-31.387,16.107-29.524,65.47-72.086,70.407c-6.081,1.608-1.41-7.533-6.708-6.713c-8.118,19.658-24.767,42.292-28.501,73.767
	c-1.256,10.642,1.658,22.785-1.669,33.532c-2.402,7.723-10.376,11.694-13.412,18.432c-3.493,7.751-7.203,26.729-8.381,35.216
	c-1.339,9.589-3.331,23.04-1.683,33.517c2.595,16.453,17.683,23.031,26.825,35.213c-14.054,7.49-31.962,1.841-50.294,3.356
	c-1.925-9.266-5.031-17.325-11.736-21.8c3.169-15.051,7.276-31.502,11.736-50.286c2.592-10.917,7.967-23.234,8.384-31.858
	c0.361-7.488-5.207-16.072-5.028-23.465c0.263-11.091,6.813-23.521,10.057-35.213c6.466-23.286,8.374-43.809,1.676-70.41
	c-6.757,6.234-0.12,15.197-3.349,23.48c-42.267,22.13-98.974-0.043-139.145-10.07c-0.949-8.554,2.56-21.551-3.355-25.143
	c-6.345,33.835-13.555,57.232-23.473,93.88c-5.595,20.706-11.33,41.499-10.053,55.318c0.817,8.854,6.384,22.374,10.053,33.532
	c3.261,9.892,6.896,23.34,11.74,30.178c8.351,11.789,24.7,11.186,26.821,31.856c1.399,6.616-21.009,4.762-11.732,8.376
	c-5.074,3.876-17.291,0.59-25.148,1.684c-6.897,0.774,1.315-4.223-3.349-6.719c-7.607,0.904-10.043-3.365-15.092-5.021
	c-4.876-9.519-2.461-27.642-5.026-40.229c-5.239-25.692-20.49-42.934-28.499-67.069c11.834-12.444,16.514-45.308,8.377-68.734
	c-9.864-28.389-35.219-49.831-50.288-77.104c-9.359-16.933-16.616-31.737-13.411-58.681c2.293-19.274,12.626-40.205,27.819-52.33
	c17.906-14.312,41.378-17.179,63.485-18.841c16.29-1.242,33.378-0.222,49.51-2.591c35.595-5.216,66.9-12.923,95.559-21.786
	L366.701,165.393z"/>
</svg>
