<svg version="1.1" id="Layer_1" xmlns="http://www.w3.org/2000/svg" xmlns:xlink="http://www.w3.org/1999/xlink" x="0px" y="0px"
	 width="800px" height="600px" viewBox="0 0 800 600" enable-background="new 0 0 800 600" xml:space="preserve">

<path fill-rule="evenodd" clip-rule="evenodd" fill="#FFFFFF" d="M243.813,33.088c2.602,12.277-8.27,26.507-17.906,33.598
	c-10.356-6.081-12.023-20.835-13.439-35.84C217.134,18.596,238.585,26.045,243.813,33.088z"/>
<path fill-rule="evenodd" clip-rule="evenodd" fill="#FFFFFF" d="M167.666,62.21c-10.313-2.388-15.441-9.941-17.924-20.16
	C162.467,23.3,182.535,48.065,167.666,62.21z"/>
<path fill-rule="evenodd" clip-rule="evenodd" fill="#FFFFFF" d="M288.629,77.888c29.42,8.65,39.923,36.22,53.753,60.482
	c-23.91-0.898-38.927-29.638-58.237-42.564C282.834,87.041,286.06,82.8,288.629,77.888z"/>
<path fill-rule="evenodd" clip-rule="evenodd" fill="#FFFFFF" d="M163.172,118.211c-10.061,4.182-17.338-7.868-29.108-4.482
	c-13.04,3.741-12.119,14.035-15.68,29.118c8.045,7.009,36.158,2.106,40.304-8.961c5.252,2.985,6.443,10.008,8.979,15.687
	c-5.752,6.958-17.2,8.198-22.409,15.681c-1.244,10.955,14.068,5.349,22.409,6.715c-3.517,10.665-18.715,9.67-20.164,22.404
	c0.962,5.003,11.047,0.906,15.669,2.242c-10.223,11.669-30.496,24.42-51.517,17.924c-5.085-16.682,3.045-32.809-11.204-40.328
	C96.509,132.859,134.029,77.906,163.172,118.211z"/>
<path fill-rule="evenodd" clip-rule="evenodd" fill="#FFFFFF" d="M586.545,171.969c7.844,3.248,6.275,14.255,6.719,22.404
	c0.931,16.938,1.017,53.557-2.225,85.125c-7.621,3.588-28.236,3.588-35.862,0c-2.708-19.078-2.201-59.832-2.221-94.086
	C562.368,179.141,574.244,175.352,586.545,171.969z"/>
<path fill-rule="evenodd" clip-rule="evenodd" fill="#FFFFFF" d="M364.776,180.929c16.094,1.093,27.56,6.791,40.318,11.202
	c0.581,25.423,3.04,55.366,2.239,91.84c-8.268,3.609-29.8,3.609-38.074,0C365.125,250.637,363.456,214.217,364.776,180.929z"/>
<path fill-rule="evenodd" clip-rule="evenodd" fill="#FFFFFF" d="M499.179,194.373c4.58,53.276,3.413,87.338,2.24,120.963
	c-8.401,2.801-27.665,4.135-35.833,0c-6.182-27.265-4.208-78.146-4.494-118.722C467.696,190.638,489.834,190.346,499.179,194.373z"
	/>
<path fill-rule="evenodd" clip-rule="evenodd" d="M176.611,3.97c12.3-0.357,12.138,11.764,22.404,13.444
	c41.271-8.49,61.358,19.747,94.084,26.878c41.542,34.625,67.498,84.83,105.29,123.203c43.892-0.478,96.758,4.839,138.878-4.488
	c31.901-7.051,50.764-21.399,89.609-26.88c11.714-1.644,20.383-1.949,29.104,0c44.035,9.818,90.892,42.387,94.085,94.083
	c2.373,38.241-7.392,85.276-4.48,123.207c2.221,28.756,23.876,65.862,0,94.074c-5.966,0-11.942,0-17.923,0
	c-16.248,25.718-18.678,70.476-13.426,105.29c-4.075,8.631-13.769,11.633-20.169,17.915c-0.854,10.656,4.742,16.165,0,24.643
	c-19.271,4.899-37.097-0.291-56.007,2.244c-2.273-21.702,24.906-36.19,33.604-60.477c11.1-31.006,2.931-65.729-4.47-98.569
	c-16.332-12.803-34.528-19.854-49.288-33.596c-22.021-20.518-32.401-47.753-44.807-78.402c-8.655,4.603,2.554,19.485-2.221,26.878
	c-39.202,17.137-98.809,31.786-152.327,17.916c-3.193-6.098,1.554-17.145-6.733-22.396c-3.875,10.321-3.041,19.991-6.725,31.357
	c-2.039,6.32-7.149,11.065-8.946,17.923c-6.51,24.76-2.521,52.272-4.484,78.402c-1.354,17.967-9.842,33.933-6.734,51.526
	c2.878,16.204,24.028,34.69,0,47.038c2.082,11.353,1.863,15.584-4.466,22.398c-11.547,4.872-31.844,1.011-47.051,2.241
	c3.674-15.766,14.272-24.554,20.169-38.083c-3.557-25.411,12.233-68.446-8.946-85.121c5.458-55.555-19.416-87.711-24.648-134.408
	c-1.167-10.296,3.37-25.769-4.479-35.838c-19.073,7.818,1.906,38.243-8.96,51.524c-45.479-34.413-56.798-102.984-87.37-152.321
	c-0.366-9.005,6.757-18.496,2.24-24.648c-11.033-1.866-15.117,10.727-26.874,17.917c-9.317,5.702-22.333,9.864-33.613,15.693
	c-10.785,5.552-22.947,10.979-31.354,17.915c-6.615,5.459-10.861,15.183-17.924,17.917c-23.29,9.039-40.142-5.577-51.513-24.635
	c5.814-21.214,20.759-39.793,24.629-62.728c1.272-7.581-0.039-15.037,2.239-22.395c8.716-28.001,34.891-41.833,44.812-64.969
	c-3.65-12.779-10.518-22.337-15.684-33.594C132.223,25.277,169.353,29.552,176.611,3.97z M212.468,30.847
	c1.416,15.004,3.083,29.759,13.439,35.84c9.637-7.091,20.508-21.321,17.906-33.598C238.585,26.045,217.134,18.596,212.468,30.847z
	 M149.742,42.05c2.483,10.218,7.611,17.771,17.924,20.16C182.535,48.065,162.467,23.3,149.742,42.05z M284.146,95.806
	c19.31,12.927,34.327,41.667,58.237,42.564c-13.83-24.262-24.333-51.832-53.753-60.482C286.06,82.8,282.834,87.041,284.146,95.806z
	 M100.451,174.211c14.25,7.519,6.119,23.646,11.204,40.328c21.021,6.496,41.294-6.255,51.517-17.924
	c-4.623-1.336-14.707,2.762-15.669-2.242c1.449-12.734,16.646-11.739,20.164-22.404c-8.34-1.366-23.652,4.24-22.409-6.715
	c5.209-7.482,16.656-8.723,22.409-15.681c-2.535-5.679-3.727-12.702-8.979-15.687c-4.146,11.067-32.259,15.97-40.304,8.961
	c3.561-15.083,2.64-25.377,15.68-29.118c11.771-3.386,19.048,8.664,29.108,4.482C134.029,77.906,96.509,132.859,100.451,174.211z
	 M552.956,185.411c0.02,34.255-0.487,75.009,2.221,94.086c7.626,3.588,28.241,3.588,35.862,0
	c3.241-31.568,3.155-68.187,2.225-85.125c-0.443-8.149,1.125-19.156-6.719-22.404C574.244,175.352,562.368,179.141,552.956,185.411z
	 M369.26,283.971c8.274,3.609,29.806,3.609,38.074,0c0.801-36.474-1.658-66.417-2.239-91.84
	c-12.759-4.411-24.224-10.108-40.318-11.202C363.456,214.217,365.125,250.637,369.26,283.971z M461.092,196.614
	c0.286,40.576-1.688,91.457,4.494,118.722c8.168,4.135,27.432,2.801,35.833,0c1.173-33.625,2.34-67.687-2.24-120.963
	C489.834,190.346,467.696,190.638,461.092,196.614z M729.902,315.336c-2.854-0.119-3.093-2.869-6.7-2.242
	c-20.359,15.317-38.378,68.377-6.725,85.124C737.876,383.829,732.138,335.406,729.902,315.336z"/>
</svg>
