<?xml version="1.0" encoding="utf-8"?>
<!-- Generator: Adobe Illustrator 16.0.4, SVG Export Plug-In . SVG Version: 6.00 Build 0)  -->
<!DOCTYPE svg PUBLIC "-//W3C//DTD SVG 1.1//EN" "http://www.w3.org/Graphics/SVG/1.1/DTD/svg11.dtd">
<svg version="1.1" id="Layer_1" xmlns="http://www.w3.org/2000/svg" xmlns:xlink="http://www.w3.org/1999/xlink" x="0px" y="0px"
	 width="168.226px" height="93.946px" viewBox="0 0 168.226 93.946" enable-background="new 0 0 168.226 93.946"
	 xml:space="preserve">
<g>
	<g>
		<path fill="#E4EEBC" d="M2.408,0.044c24.25,0,48.5,0,72.748,0c-0.105,1.625-2.244,1.977-2.27,3.705
			c-0.018,1.051-0.469,2.037-1.705,2.086c-1.271,0.049-1.459-1.129-1.91-1.99c-1.346-2.57-4.912-3.264-6.707-1.225
			c-2.984,3.389-3.748,8.623-8.684,10.43c-0.275,0.102-0.35,0.885-0.432,1.365c-0.439,2.564-0.814,5.141-1.283,7.699
			c-0.285,1.566,0.359,2.551,1.854,2.58c2.289,0.045,4.404,0.643,6.545,1.334c1.85,0.596,2.564-0.068,1.986-2.068
			c-0.314-1.09-0.471-2.143-1.465-2.902c-1.018-0.779-0.619-1.693,0.35-1.982c1.879-0.562,2.529-1.756,2.57-3.588
			c0.021-0.938,0.594-1.693,1.625-1.73c1.176-0.041,1.568,1.08,1.488,1.795c-0.301,2.611,1.604,5.471-0.801,7.834
			c-0.617,0.605-0.459,0.92,0.178,1.41c2.166,1.664,0.631,2.342-0.859,3.041c-2.559,1.195-4.795,2.666-4.73,5.955
			c-0.744-0.002-1.49-0.004-2.234-0.006l-0.008-0.012c-0.898-2.256-4.016-2.85-6.709-1.219c-2.104,1.271-2.953,1.951-0.48,4.512
			c3.061,3.172,3.336-0.004,4.707-1.02c0.049,5.533,0.043,11.07,0.188,16.604c0.039,1.557-0.918,2.443-1.654,3.527
			c-7.229-0.09-14.471,0.137-21.652-0.955c-1.172-5.934-0.416-11.939-0.648-17.906c-0.051-1.293,0.504-2.846-1.232-3.578
			c-0.812,0.029-1.621,0.059-2.434,0.088c-2.062-0.648-1.566,0.932-1.574,1.902c-0.039,4.596-0.121,9.191,0.021,13.781
			c0.078,2.527-0.367,4.174-3.391,3.811c-1.209-0.145-1.844,0.535-1.877,1.754c-5.686,0.594-11.383,0.137-17.074,0.195
			c-0.721,0.008-1.113-0.414-1.211-1.121c0.34-0.131,0.945-0.209,0.982-0.402c1.191-5.967,1.383-11.893-0.951-17.674
			c-0.168-0.518-0.336-1.037-0.504-1.555c-1.635-1.674-2.23-3.871-3.012-5.975c0-0.502,0-1,0-1.5
			c1.412-2.117,0.471-4.477,0.697-6.713c0.033-0.281,0.064-0.562,0.098-0.844c1.289-2.35,1.291-4.961,1.277-7.502
			c-0.01-1.77,1.377-4.041-1.301-5.188c0.002-0.504,0.004-1.01,0.006-1.516c0.57-0.121,1.184-0.23,1.27-0.949
			c0.111-0.93-0.57-1.137-1.281-1.285c0.01-0.26,0.018-0.52,0.025-0.777C1.227,2.156,1.5,2.042,1.775,1.927
			c-0.27-0.115-0.541-0.232-0.812-0.35C0.951,1.314,0.939,1.052,0.928,0.789C1.42,0.541,1.914,0.292,2.408,0.044z"/>
		<path fill-rule="evenodd" clip-rule="evenodd" fill="#E6EEBA" d="M60.906,33.792c-0.064-3.289,2.172-4.76,4.73-5.955
			c1.49-0.699,3.025-1.377,0.859-3.041c-0.637-0.49-0.795-0.805-0.178-1.41c2.404-2.363,0.5-5.223,0.801-7.834
			c0.08-0.715-0.312-1.836-1.488-1.795c-1.031,0.037-1.604,0.793-1.625,1.73c-0.041,1.832-0.691,3.025-2.57,3.588
			c-0.969,0.289-1.367,1.203-0.35,1.982c0.994,0.76,1.15,1.812,1.465,2.902c0.578,2-0.137,2.664-1.986,2.068
			c-2.141-0.691-4.256-1.289-6.545-1.334c-1.494-0.029-2.139-1.014-1.854-2.58c0.469-2.559,0.844-5.135,1.283-7.699
			c0.082-0.48,0.156-1.264,0.432-1.365c4.936-1.807,5.699-7.041,8.684-10.43c1.795-2.039,5.361-1.346,6.707,1.225
			c0.451,0.861,0.639,2.039,1.91,1.99c1.236-0.049,1.688-1.035,1.705-2.086c0.025-1.729,2.164-2.08,2.27-3.705c3.25,0,6.5,0,9.75,0
			c0.088,0.473,0.139,1.061,0.75,1.061c0.609,0,0.662-0.588,0.748-1.061c1.502,0,3.002,0,4.5,0c3.232,2.471,6.307,5.215,10.5,6
			c0.25,0,0.496,0.004,0.746,0.006c0.068,0.258,0.139,0.514,0.207,0.771c-0.029,1.035-0.061,2.072-0.09,3.109
			c-1.219,0.221-2.312-0.322-2.922-1.168c-1.867-2.588-4.48-3.117-7.375-3.123c-3.461,0.107-2.512,2.938-3.004,4.877
			c0.139,7.213,2.131,10.002,8.029,11.242c-1.037,4.48-1.301,9.006-0.793,13.576c-2.822,5.975-1.238,12.498-2.326,18.693
			c-2.436,2.607-4.641,2.875-6.746,0.816c0.482-0.539,0.965-1.078,1.447-1.617c3.533-1.471,4.896-7.143,2.326-9.684
			c0-1,0.004-2,0.004-3c2.387-0.73,0.373-3.377,2.625-4.422c-2.164-0.42-3.391,0.082-4.207,1.275
			c-1.301,1.889,2.062,1.576,1.578,3.145c-1.029,0.031-2.062,0.062-3.094,0.092c-0.348-0.045-0.695-0.092-1.043-0.137
			c-0.066-2.426-0.133-4.854-0.195-7.279c0.191-0.125,0.385-0.252,0.578-0.379c-0.252-0.211-0.5-0.422-0.752-0.635
			c0-0.232-0.002-0.465-0.006-0.699c0.223-1.553,0.551-3.1,0.631-4.66c0.051-0.977-0.842-1.664-1.674-1.629
			c-1.576,0.064-0.566,1.191-0.541,1.891c0.041,1.215,0.115,2.432,0.176,3.648c-0.969,0.504-1.973,0.877-3.094,0.773
			c-0.057-0.443-0.111-0.889-0.166-1.332c-0.141,0.062-0.281,0.125-0.422,0.184c0.197,0.381,0.393,0.76,0.59,1.141
			c0.238,1.545,0.475,3.088,0.715,4.633c-0.912,0.922-0.924,1.846-0.006,2.771c-0.006,0.57-0.008,1.143-0.012,1.715
			c-1.393,0.072-1.402,1.076-1.402,2.088c0,0.984-0.084,1.969,0.535,2.863c1.342,1.936,1.537,3.955-0.18,5.719
			c-1.779,1.828-3.924,2.557-6.387,1.23c-0.393-3.176-2.457-4.506-5.236-3.596c-2.51,0.822-6.941-0.795-6.764,4.35
			c-2.234,0.246-3.068-0.727-3.031-2.984C60.217,44.794,60.188,39.277,60.906,33.792z M87.158,18.794
			c0.221,0.355,0.443,0.711,0.666,1.068c0.131-0.135,0.266-0.268,0.4-0.4c-0.357-0.223-0.713-0.445-1.07-0.668
			c-0.371-1.842-1.406-1.242-2.318-0.553c-0.295,0.221-0.549,1.064-0.408,1.205C85.617,20.625,86.084,18.421,87.158,18.794z
			 M73.635,18.542c-2.467,1.721-0.34,3.746-0.473,5.611c-0.09,1.26,0.033,2.834,1.221,2.562c2.074-0.473,4.221,1.15,6.104-0.389
			c0.398-0.326,0.469-1.084-0.078-1.254c-2.871-0.881-2.311-3.836-3.469-5.691c-1.492-0.17-0.582,1.939-1.904,1.852
			C73.826,20.734,75.029,18.947,73.635,18.542z M92.58,23.597c-2.33-0.77-2.723,1.184-3.447,2.604
			c-0.232,0.453-0.268,1.139,0.248,1.27c1.854,0.469,1.375-1.67,2.355-2.256C92.221,24.925,92.816,24.572,92.58,23.597z
			 M94.037,29.599c-2.502,1.188-2.502,1.188-0.998,3.408C93.375,31.855,93.686,30.802,94.037,29.599z M86.059,8.882
			c0.645-0.059,1.256-0.271,1.398-0.953c0.17-0.811-0.414-1.033-1.094-1.029c-0.688,0-1.195,0.314-1.229,1.041
			C85.111,8.505,85.537,8.771,86.059,8.882z M89.041,33.296c-0.17,0.271-0.346,0.549-0.521,0.826
			c0.207,0.098,0.506,0.332,0.605,0.268c0.256-0.17,0.424-0.471,0.627-0.719C89.553,33.564,89.352,33.458,89.041,33.296z
			 M94.547,25.982c-0.092-0.162-0.186-0.322-0.277-0.484c-0.074,0.07-0.209,0.145-0.209,0.215c0.006,0.193,0.066,0.387,0.105,0.582
			C94.293,26.191,94.42,26.087,94.547,25.982z"/>
		<path fill-rule="evenodd" clip-rule="evenodd" fill="#E7EFBC" d="M140.404,0.044c9,0,18,0,27,0
			c-0.252,10.994,0.398,22-0.336,32.988c-0.748-0.342-1.496-0.682-1.941,0.41c-1.996,1.416-2.18,9.639-0.279,12.33
			c-0.002,0.764-0.008,1.527-0.012,2.291c-2.756,1.689-1.207,4.072-1.006,6.238l0.051-0.076c-2.195-0.307-4.387-0.67-6.592-0.9
			c-1.275-0.137-2.576-0.068-2.611,1.752c-5.426,0.641-10.863,0.504-16.297,0.193c0.014-3.934,0.031-7.867,0.047-11.801
			c1.01-2.508,0.373-5.068,0.242-7.611c0.014-0.811,0.025-1.621,0.037-2.432c0.293-0.537,0.588-1.428,1.227-1.182
			c1.049,0.404,1.264,1.494,0.998,2.525c-1.271,4.924-0.34,9.918-0.492,14.877c-0.047,1.5-0.584,3.457,1.998,3.623
			c2.334,0.152,4.176-0.281,4.33-3.174c-1.438-0.268-1.717,2.164-3.254,1.168c-0.562-0.365-0.777-0.934-0.699-1.617
			c0.236-2.037,4.445-6.424,6.629-6.891c2.787-0.598,5.043-4.482,4.785-6.963c-0.469-4.516-2.676-8.896-1.191-13.598
			c0.215-0.676,0.078-1.492-0.031-2.223c-0.041-0.281-0.434-0.676-0.705-0.709c-0.283-0.033-0.9,0.379-0.879,0.467
			c0.951,3.629-1.834,3.434-3.969,4.025c-0.756,0.207-1.035,1.104-0.99,1.869c0.141,2.33-1.004,3.064-3.186,2.947
			c-1.963-0.104-4.439,1.895-5.486-1.582c-0.09-0.303-1.25-0.633-1.672-0.436c-4.572,2.129-4.734-0.812-4.721-4.006
			c1.574-1.59,3.867-2.725,3.477-5.557c-0.107-0.773-0.928-1.941,0.283-2.209c1.293-0.283,1.801,0.986,2.168,2.082
			c0.246,0.744-0.266,1.812,1.068,2.26c1.148-1.16,1.518-2.307,0.451-3.848c-0.945-1.367-0.922-2.324,1.246-2.072
			c0.945,0.109,1.945-0.229,2.914-0.4c1.277-0.229,3.121,0.68,3.717-0.828c0.676-1.711-0.482-3.691-1.631-4.643
			C142.678,5.332,141.881,2.515,140.404,0.044z"/>
		<path fill-rule="evenodd" clip-rule="evenodd" fill="#E6EEBA" d="M28.658,93.791c-8,0-16,0-24,0
			C5.061,83.23,3.943,72.644,5.305,62.085c0.348-2.686,1.396-3.125,3.648-2.49c1.943,0.549,3.67,0.354,4.691-1.703
			c0.51,0.006,1.02,0.014,1.527,0.018c1.74,2.229,3.479,2.197,5.221,0c0.504-0.031,1.008-0.062,1.514-0.096
			c1.264,2.223,2.516,2.32,3.75-0.025c0.545-0.158,1.088-0.318,1.633-0.477c-0.209,1.084,0.42,1.648,1.283,2.064
			C28.602,70.849,28.629,82.32,28.658,93.791z"/>
		<path fill-rule="evenodd" clip-rule="evenodd" fill="#E7EFBC" d="M56.406,93.791c-7.998,0-16,0-23.998,0
			c0.004-10.424,0.051-20.848-0.021-31.273c-0.014-2.217,0.414-3.004,2.924-2.633c2.916,0.434,5.941,0.104,8.92,0.16
			c1.449,0.027,2.445-0.367,2.408-2.039c2.498-0.398,4.998-0.291,7.5-0.07c0.268,1.029,1.014,1.25,1.947,1.143
			c0.131,0.326,0.26,0.654,0.391,0.98C56.139,71.302,55.91,82.546,56.406,93.791z"/>
		<path fill-rule="evenodd" clip-rule="evenodd" fill="#E6EEBA" d="M162.904,93.791c-7.75,0-15.5,0-23.25,0
			c1.172-5.182-0.111-10.367,0.023-15.549c0.125-4.842,1.18-9.646,0.658-14.514c-0.482-4.475-0.518-4.477,3.77-3.855
			c1.447,0.211,2.811,0.311,3.104-1.643c4.469-0.436,8.936-0.457,13.398,0.09c1.068,1.811,2.826,3.287,2.705,5.691
			c-0.008,0.146,0.842,0.338,1.291,0.508c0.098,0.471,0.195,0.945,0.293,1.418c-0.158,0.025-0.311,0.076-0.457,0.145
			c-0.238,0.312-0.48,0.627-0.719,0.939c0.055,0.199,0.023,0.377-0.098,0.543c-0.082,0.068-0.24,0.152-0.229,0.203
			c0.041,0.176,0.137,0.336,0.213,0.502c0.004,0.764,0.01,1.531,0.018,2.295c-0.854,0.727-0.857,1.461-0.018,2.199
			c0.07,1.23,0.141,2.461,0.213,3.691c-1.256,1.055-0.895,2.518-0.906,3.848C162.877,84.8,162.902,89.294,162.904,93.791z"/>
		<path fill-rule="evenodd" clip-rule="evenodd" fill="#E6EEBA" d="M81.906,93.791c-7.25,0-14.5,0-21.75,0
			c0.006-10.465-0.016-20.932,0.057-31.398c0.008-0.879-0.764-2.768,1.084-2.508c6.18,0.875,12.342-0.26,18.512,0.098
			c2.049,0.121,2.904,0.789,2.869,2.879c-0.084,4.734,0.092,9.473-0.059,14.205C82.443,82.642,83.381,88.271,81.906,93.791z"/>
		<path fill-rule="evenodd" clip-rule="evenodd" fill="#E5ECB1" d="M134.406,93.791c-6.002,0-12,0-18.002,0
			c-0.494-5.738-0.992-11.48-1.488-17.223c-0.02-0.613,1.695-1.188,0.039-1.834c0.785-0.652,1.031-1.357,0.207-2.162
			c0.732-0.227,0.797-0.699,0.492-1.312c0.979-3,0.844-5.986-0.137-8.957c0.285-1.508,0.568-3.018,0.852-4.523
			c2.258-0.029,4.52-0.059,6.777-0.088c0.256-0.01,0.51-0.02,0.766-0.029c3.777,0.1,7.557,0.361,11.326-0.146
			c0.086,0.273,0.17,0.549,0.256,0.822c-1.475,1.082-1.068,2.684-1.074,4.123C134.393,72.906,134.406,83.349,134.406,93.791z"/>
		<path fill-rule="evenodd" clip-rule="evenodd" fill="#4C3E20" d="M115.518,62.302c0.98,2.971,1.115,5.957,0.137,8.957
			c-0.623,0.264-0.883,0.668-0.492,1.312c0.824,0.805,0.578,1.51-0.207,2.162c-0.012,0.611-0.027,1.223-0.039,1.834
			c0.496,5.742,0.994,11.484,1.488,17.223c-5,0-10,0-15,0c0.213-0.578,0.641-1.172,0.605-1.734c-0.223-3.48,1.504-4.77,4.777-4.5
			c0.195,0.018,0.416-0.238,0.625-0.369c2.676-2.037,0.551-4.613,0.775-6.926c0.221-2.492,0.438-4.988,0.654-7.482
			c0.164-1.707-0.643-3.09-1.488-4.459c0.355-0.625,0.736-1.236,1.066-1.877c1.336-2.594-0.223-5.178-0.26-7.762
			c-0.018-1.32-2.492-0.756-3.912-0.738c-0.66,0.221-1.32,0.445-1.977,0.668c-2.5-1.486-3.344,2.021-5.426,1.797
			c0.84,1.516-0.914,3.078,0.156,4.666c0.668,0.996,1.008,2.213,1.496,3.332c-0.004,0.221-0.029,0.438-0.084,0.652
			c-4.139,0.488-2.811,3.623-2.932,6.057c0.02,0.477,0.039,0.955,0.059,1.434c-2.551,1.107,0.734,2.496-0.178,3.686
			c0.02,0.537,0.037,1.074,0.053,1.611c-0.111,0.225-0.223,0.449-0.334,0.674c-2.686-0.143-2.604,3.814-5.338,3.6
			c3.314-8.902,3.939-18.207,4.158-27.574c0.025-0.842-0.049-1.715,0.779-2.285c0.336,0.41,0.832,0.865,1.059,0.082
			c0.176-0.605-0.539-0.682-1.043-0.711c-0.273-0.535-0.547-1.07-0.82-1.602c1.088-6.195-0.496-12.719,2.326-18.693h-0.002
			c-0.141,1.633,1.713,1.271,2.24,2.236c-0.01,0.242-0.02,0.484-0.029,0.727c-1.449,0.027-2.531,0.375-1.916,2.201
			c0.529,1.572,0.654,3.205,0.195,4.775c-1.094,3.725,0.545,5.924,3.828,7.309c2.121,3.451,2.854,3.547,5.385,0.705
			c2.652-0.639,3.316-4.049,6.158-4.42c0.053,0.359-0.262,1.049,0.605,0.678c0.424,0.252,0.85,0.502,1.273,0.754
			c0.947,1.557-0.111,4.158,2.516,4.842c-0.25,0.824-0.498,1.652-0.75,2.477C114.947,59.15,114.15,60.681,115.518,62.302z
			 M110.412,89.296c2.66,1.707,3.992,1.129,3.719-2.174c-0.109-1.305,0.383-2.721-0.711-3.842c-0.016-2.232-0.031-4.467-0.047-6.701
			c1.053-3.758,0.037-7.512-0.037-11.268c-0.01-0.389-0.416-0.838-0.76-1.107c-0.117-0.09-0.879,0.289-0.873,0.438
			c0.1,2.709-2.129,5.346-0.578,8c0.771,1.324,0.697,2.562,0.768,3.891c-1.256,2.389-0.504,4.947-0.641,7.432
			c-1.059,1.65-0.791,3.514-0.85,5.326c-0.156,0.164-0.312,0.334-0.467,0.5c0.113,0.062,0.225,0.127,0.336,0.189
			C110.318,89.751,110.365,89.525,110.412,89.296z M113.135,52.378c-0.227-0.576-0.709-1.154-1.531-1.107
			c-0.709,0.039-1.119,0.592-0.848,1.287c0.285,0.732,0.979,1.096,1.756,1.07C113.143,53.607,113.221,53.087,113.135,52.378z
			 M108.59,54.208c0.033-0.082,0.064-0.164,0.094-0.246c-0.074-0.023-0.186-0.094-0.213-0.068c-0.059,0.053-0.07,0.154-0.102,0.236
			C108.443,54.158,108.518,54.181,108.59,54.208z"/>
		<path fill-rule="evenodd" clip-rule="evenodd" fill="#2A360C" d="M54.139,57.935c-2.502-0.221-5.002-0.328-7.5,0.07
			c-4.484-0.109-8.971-0.166-13.451-0.352c-1.889-0.078-2.352,0.836-2.35,2.488c0.018,10.971-0.002,21.943-0.012,32.918
			c-0.033,0.084-0.105,0.178-0.09,0.256c0.033,0.162,0.111,0.316,0.172,0.475c-0.75,0-1.502,0-2.25,0
			c-0.029-11.471-0.057-22.941-0.086-34.414c0.113-1.021,0.604-2.281-1.283-2.064c-0.545,0.158-1.088,0.318-1.633,0.477
			c-1.252-0.289-2.504-0.467-3.75,0.025c-0.506,0.033-1.01,0.064-1.514,0.096c-1.74-0.314-3.48-0.461-5.221,0
			c-0.508-0.004-1.018-0.012-1.527-0.018c-2.707-0.064-5.414-0.131-8.121-0.197c-1.332-0.947-2.055-0.564-2.221,1.021
			c-0.119,3.18-0.238,6.359-0.357,9.541c-2.434,1.842-3.018,11.396-0.805,13.451c0.15,0.141,0.469,0.096,0.709,0.137
			c0.088,3.736,0.176,7.471,0.264,11.207C3.072,93.138,2.988,93.228,3,93.306c0.025,0.166,0.102,0.324,0.158,0.484
			c-2.566,0.57-3.094-0.43-3.074-3c0.139-18.998,0.074-37.998,0.074-56.996c1.004,0.242,2.008,0.482,3.012,0.725
			c0.168,0.518,0.336,1.037,0.504,1.555c-0.855,3.203,0.02,6.502-0.537,9.723c-0.088,0.068-0.264,0.17-0.252,0.205
			c0.062,0.189,0.176,0.361,0.271,0.539c-0.002,1.502-0.004,3.004-0.006,4.504c-0.092,0.068-0.273,0.168-0.264,0.203
			c0.061,0.188,0.172,0.361,0.264,0.539c0.164,0.789,0.328,1.578,0.492,2.363c0.098,0.707,0.49,1.129,1.211,1.121
			c5.691-0.059,11.389,0.398,17.074-0.195c6.098,0.645,6.252,0.555,6.852-4c0.084-0.08,0.254-0.182,0.24-0.234
			c-0.057-0.201-0.174-0.387-0.268-0.58c0-5.479-0.002-10.955-0.004-16.434c0.812-0.029,1.621-0.059,2.434-0.088
			c-0.094,6.328-0.203,12.654-0.268,18.982c-0.014,1.393-0.021,2.918,2.148,2.502c7.182,1.092,14.424,0.865,21.652,0.955
			c1.295,0.029,1.336,0.74,0.922,1.699C55.139,57.896,54.639,57.916,54.139,57.935z M1.137,57.869l0.287,0.023L1.303,57.58
			L1.137,57.869z"/>
		<path fill-rule="evenodd" clip-rule="evenodd" fill="#E6EEBA" d="M140.404,0.044c1.477,2.471,2.273,5.287,4.688,7.291
			c1.148,0.951,2.307,2.932,1.631,4.643c-0.596,1.508-2.439,0.6-3.717,0.828c-0.969,0.172-1.969,0.51-2.914,0.4
			c-2.168-0.252-2.191,0.705-1.246,2.072c1.066,1.541,0.697,2.688-0.451,3.848c-1.334-0.447-0.822-1.516-1.068-2.26
			c-0.367-1.096-0.875-2.365-2.168-2.082c-1.211,0.268-0.391,1.436-0.283,2.209c0.391,2.832-1.902,3.967-3.477,5.557
			c-0.918-0.084-1.42-0.586-1.494-1.506c-0.102-1.637-0.199-3.277-2.244-3.75c0.027-1.156-0.188-2.145-1.602-2.301
			c0.26-0.242,0.518-0.486,0.775-0.73c1.033-0.004,1.912,0.24,2.57,1.164c0.5,0.707,1.254,1.449,2.125,0.654
			c0.738-0.674-0.275-1.281-0.424-1.936c-1.127-4.914-0.113-9.568,1.799-14.102C135.404,0.044,137.904,0.044,140.404,0.044z
			 M133,12.48c0.141-0.213,0.447-0.469,0.475-0.752c0.055-0.537-0.279-0.941-0.846-0.811c-0.273,0.064-0.646,0.439-0.672,0.703
			C131.908,12.158,132.314,12.441,133,12.48z"/>
		<path fill-rule="evenodd" clip-rule="evenodd" fill="#F5FDCC" d="M81.906,93.791c1.475-5.52,0.537-11.148,0.713-16.725
			c0.15-4.732-0.025-9.471,0.059-14.205c0.035-2.09-0.82-2.758-2.869-2.879c-6.17-0.357-12.332,0.777-18.512-0.098
			c-1.848-0.26-1.076,1.629-1.084,2.508c-0.072,10.467-0.051,20.934-0.057,31.398c-0.75,0-1.5,0-2.25,0
			c-0.045-11.236,1.115-22.455,0.473-33.703c0.113-0.602,0.225-1.205,0.338-1.811c1.008-0.641,2.152-0.486,3.246-0.49
			c7.152-0.037,14.305-0.037,21.457-0.051c0.256,0.268,0.512,0.533,0.77,0.799c0.055,1.238,0.113,2.475,0.17,3.711
			c-0.357,1.031-0.373,2.061,0.02,3.086c-0.012,2.471-0.025,4.941-0.037,7.41c0.008,0.283,0.018,0.566,0.025,0.85
			c0.006,3.715,0.014,7.432,0.021,11.145c0.002,0.285,0.002,0.574,0.002,0.863c-0.369,2.281,0.357,4.633-0.424,6.889
			c-0.188,0.436-0.375,0.869-0.559,1.303C82.906,93.791,82.406,93.791,81.906,93.791z"/>
		<path fill-rule="evenodd" clip-rule="evenodd" fill="#60462F" d="M89.744,86.119c2.734,0.215,2.652-3.742,5.338-3.6
			c0.322,0.807,0.811,1.59,0.924,2.424c0.17,1.275,0.746,2.146,1.939,2.445c1.414,0.354,1.146-1.418,2.033-1.787
			c2.562,0.135,5.084,0.459,7.434,1.586c-0.209,0.131-0.43,0.387-0.625,0.369c-3.273-0.27-5,1.02-4.777,4.5
			c0.035,0.562-0.393,1.156-0.605,1.734c-4.25,0-8.498,0-12.748,0c-0.033-1.557-0.066-3.113-0.1-4.672
			C88.916,88.103,87.939,86.558,89.744,86.119z"/>
		<path fill-rule="evenodd" clip-rule="evenodd" fill="#F5FDCC" d="M30.826,93.06c0.01-10.975,0.029-21.947,0.012-32.918
			c-0.002-1.652,0.461-2.566,2.35-2.488c4.48,0.186,8.967,0.242,13.451,0.352c0.037,1.672-0.959,2.066-2.408,2.039
			c-2.979-0.057-6.004,0.273-8.92-0.16c-2.51-0.371-2.938,0.416-2.924,2.633c0.072,10.426,0.025,20.85,0.021,31.273
			c-0.25,0-0.502,0-0.752,0C31.381,93.548,31.104,93.302,30.826,93.06z"/>
		<path fill-rule="evenodd" clip-rule="evenodd" fill="#F5FDCC" d="M167.068,33.033c0.734-10.988,0.084-21.994,0.336-32.988
			c1.195-0.258,0.732,0.67,0.734,1.125c0.018,30.5,0.018,60.998,0,91.496c-0.002,0.457,0.461,1.383-0.734,1.125
			c-0.07-3.008-0.141-6.012-0.207-9.02c0-0.484,0-0.969,0-1.453c1.086-9.516-1.504-19.033,0.012-28.547
			c0.002-5.984,0.002-11.971,0.004-17.955C167.359,35.548,167.623,34.275,167.068,33.033z"/>
		<path fill-rule="evenodd" clip-rule="evenodd" fill="#2A360C" d="M138.156,93.791c-0.502,0-1.002,0-1.502,0
			c-0.121-0.273-0.246-0.547-0.369-0.822l-0.18-0.121l-0.143,0.162c0.076-6.469,0.152-12.941,0.227-19.41
			c0.449-0.297,0.441-0.584-0.012-0.865c-0.041-4.744-0.082-9.484-0.125-14.229c0.756-0.496,1.492-0.355,2.221,0.064
			c-0.057,4.986-0.113,9.979-0.17,14.965c-0.084,0.074-0.25,0.17-0.238,0.215c0.051,0.193,0.156,0.369,0.242,0.549
			c0.078,6.244,0.156,12.486,0.234,18.727C138.277,93.281,138.217,93.537,138.156,93.791z"/>
		<path fill-rule="evenodd" clip-rule="evenodd" fill="#2A360C" d="M84.342,72.742c0.012-2.469,0.025-4.939,0.037-7.41
			c0.656-1.033,0.67-2.061-0.02-3.086c-0.057-1.236-0.115-2.473-0.17-3.711c1.793-0.988,1.316,1.123,2.09,1.531
			c0.059,1.494,0.15,2.988,0.164,4.482c0.094,8.352,0.17,16.703,0.248,25.057c0.156,1.396,0.311,2.791,0.463,4.186
			c-0.998,0-2,0-2.998,0c-0.062-0.434-0.127-0.867-0.189-1.303c0.781-2.256,0.055-4.607,0.424-6.889
			c0.471-0.291,0.463-0.578-0.002-0.863c-0.008-3.713-0.016-7.43-0.021-11.145C84.803,73.296,84.779,73.013,84.342,72.742z"/>
		<path fill-rule="evenodd" clip-rule="evenodd" fill="#F5FDCC" d="M138.342,93.025c-0.078-6.24-0.156-12.482-0.234-18.727
			c0-0.254-0.004-0.51-0.004-0.764c0.057-4.986,0.113-9.979,0.17-14.965c2.932-1.369,5.951-0.334,8.936-0.34
			c-0.293,1.953-1.656,1.854-3.104,1.643c-4.287-0.621-4.252-0.619-3.77,3.855c0.521,4.867-0.533,9.672-0.658,14.514
			c-0.135,5.182,1.148,10.367-0.023,15.549c-0.25,0-0.5,0-0.75,0C138.717,93.537,138.529,93.281,138.342,93.025z"/>
		<path fill-rule="evenodd" clip-rule="evenodd" fill="#F5FDCC" d="M2.945,68.257c0.119-3.182,0.238-6.361,0.357-9.541
			c0.721-0.381,1.84,0.102,2.221-1.021c2.707,0.066,5.414,0.133,8.121,0.197c-1.021,2.057-2.748,2.252-4.691,1.703
			c-2.252-0.635-3.301-0.195-3.648,2.49C3.943,72.644,5.061,83.23,4.658,93.791c-0.25,0-0.5,0-0.75,0
			c-0.266-0.246-0.531-0.492-0.795-0.738c-0.088-3.736-0.176-7.471-0.264-11.207C3.219,77.32,3.564,72.791,2.945,68.257z"/>
		<path fill-rule="evenodd" clip-rule="evenodd" fill="#2A360C" d="M58.379,60.087c0.643,11.248-0.518,22.467-0.473,33.703
			c-0.5,0-1,0-1.5,0c-0.496-11.244-0.268-22.488,0.07-33.732C57.109,60.068,57.744,60.078,58.379,60.087z"/>
		<path fill-rule="evenodd" clip-rule="evenodd" fill="#E7EFBC" d="M132.904,0.044c-1.912,4.533-2.926,9.188-1.799,14.102
			c0.148,0.654,1.162,1.262,0.424,1.936c-0.871,0.795-1.625,0.053-2.125-0.654c-0.658-0.924-1.537-1.168-2.57-1.164
			c1.617-3.527,2.738-7.154,2.23-11.109c-0.799-2.184-2.098-2.072-3.65-0.791c-0.496,0.24-1.238-0.041-1.496,0.705
			c-0.807,0.605-2.143,0.555-2.354,1.896c-0.389-0.045-0.773-0.088-1.162-0.133c-0.086-0.1-0.174-0.201-0.26-0.301
			c-0.139-2.662,3.27-2.354,3.762-4.486C126.906,0.044,129.904,0.044,132.904,0.044z"/>
		<path fill-rule="evenodd" clip-rule="evenodd" fill="#E7EFBC" d="M102.15,6.05c-0.25-0.002-0.496-0.006-0.746-0.006c0-2,0-4,0-6
			c5.25,0,10.502,0,15.75,0c0.715,1.684,0.281,4.133,2.988,4.486c0.086,0.1,0.174,0.201,0.26,0.301
			c-0.779,1.273-1.559,2.545-2.338,3.818c-0.555-0.141-1.109-0.281-1.664-0.422c-0.193-2.713,0.855-6.086-3.504-6.582
			c-2.508-0.611-4.496,0.268-6.143,2.139c-0.658-1.584-1.396-2.408-2.504-0.295c-0.443,0.846-0.939,1.662-1.414,2.494
			C102.604,5.97,102.375,5.992,102.15,6.05z"/>
		<path fill-rule="evenodd" clip-rule="evenodd" fill="#F5FDCC" d="M136.053,58.505c0.043,4.744,0.084,9.484,0.125,14.229
			c0.004,0.289,0.008,0.576,0.012,0.865c-0.074,6.469-0.15,12.941-0.227,19.41c-0.268,0.262-0.539,0.521-0.809,0.781
			c-0.25,0-0.5,0-0.748,0c0-10.441-0.014-20.885,0.014-31.33c0.006-1.439-0.4-3.041,1.074-4.121
			C135.668,58.433,135.855,58.49,136.053,58.505z"/>
		<path fill-rule="evenodd" clip-rule="evenodd" fill="#E4EEBC" d="M101.404,0.044c0,2,0,4,0,6c-4.193-0.785-7.268-3.529-10.5-6
			C94.406,0.044,97.906,0.044,101.404,0.044z"/>
		<path fill-rule="evenodd" clip-rule="evenodd" fill="#F5FDCC" d="M162.904,93.791c-0.002-4.496-0.027-8.99,0.01-13.488
			c0.012-1.33-0.35-2.793,0.906-3.848c0.316,0.133,0.635,0.266,0.951,0.398c-0.367,2.178-0.531,4.354,0.105,6.516
			c-0.156,3.227-0.312,6.449-0.469,9.674c-0.252,0.252-0.504,0.5-0.754,0.748C163.404,93.791,163.154,93.791,162.904,93.791z"/>
		<path fill-rule="evenodd" clip-rule="evenodd" fill="#E6EEBA" d="M120.143,4.531c-2.707-0.354-2.273-2.803-2.988-4.486
			c2.252,0,4.5,0,6.75,0C123.412,2.177,120.004,1.869,120.143,4.531z"/>
		<path fill-rule="evenodd" clip-rule="evenodd" fill="#2A360C" d="M164.408,93.042c0.156-3.225,0.312-6.447,0.469-9.674
			c0.773-0.016,1.545-0.033,2.32-0.051c0,0.484,0,0.969,0,1.453c-1.791,0.617-1.166,2.148-1.244,3.379
			c-0.121,1.904,0.289,3.877-0.801,5.641c-0.248,0-0.498,0-0.748,0C164.406,93.542,164.408,93.294,164.408,93.042z"/>
		<path fill-rule="evenodd" clip-rule="evenodd" fill="#D1DCA8" d="M0.928,0.789c0.012,0.264,0.023,0.525,0.035,0.789
			c-0.014,0.23-0.02,0.463-0.014,0.693C0.941,2.529,0.934,2.789,0.924,3.048c0.004,0.744,0.008,1.488,0.012,2.234
			C0.934,5.789,0.932,6.294,0.93,6.798c0.006,4.23,0.016,8.461,0.023,12.689c-0.033,0.281-0.064,0.562-0.098,0.844
			c-0.23-0.029-0.463-0.043-0.697-0.037c0-6.25-0.02-12.5,0.039-18.75c0.006-0.473-0.768-1.613,0.711-1.5
			C0.9,0.292,0.906,0.541,0.928,0.789z"/>
		<path fill-rule="evenodd" clip-rule="evenodd" fill="#495526" d="M165.152,93.791c1.09-1.764,0.68-3.736,0.801-5.641
			c0.078-1.23-0.547-2.762,1.244-3.379c0.066,3.008,0.137,6.012,0.207,9.02C166.654,93.791,165.904,93.791,165.152,93.791z"/>
		<path fill-rule="evenodd" clip-rule="evenodd" fill="#B0BD8B" d="M3.17,34.519c-1.004-0.242-2.008-0.482-3.012-0.725
			c0-1.75,0-3.502,0-5.25C0.939,30.648,1.535,32.845,3.17,34.519z"/>
		<path fill-rule="evenodd" clip-rule="evenodd" fill="#95724D" d="M87.154,93.791c-0.152-1.395-0.307-2.789-0.461-4.186
			c0.176-0.191,0.395-0.287,0.656-0.279l0.188,0.211l0.211-0.25c0.271-0.055,0.539-0.111,0.809-0.168
			c0.033,1.559,0.066,3.115,0.1,4.672C88.156,93.791,87.654,93.791,87.154,93.791z"/>
		<path fill-rule="evenodd" clip-rule="evenodd" fill="#B0BD8B" d="M0.158,20.294c0.234-0.006,0.467,0.008,0.697,0.037
			c-0.227,2.236,0.715,4.596-0.697,6.713C0.158,24.794,0.158,22.544,0.158,20.294z"/>
		<path fill-rule="evenodd" clip-rule="evenodd" fill="#E4EEBC" d="M86.404,0.044c-0.086,0.473-0.139,1.061-0.748,1.061
			c-0.611,0-0.662-0.588-0.75-1.061C85.406,0.044,85.908,0.044,86.404,0.044z"/>
		<path fill-rule="evenodd" clip-rule="evenodd" fill="#F5FDCC" d="M0.928,0.789C0.906,0.541,0.9,0.292,0.908,0.044c0.5,0,1,0,1.5,0
			C1.914,0.292,1.42,0.541,0.928,0.789z"/>
		<path fill-rule="evenodd" clip-rule="evenodd" fill="#E4EEBC" d="M164.408,93.042c0,0.252-0.002,0.5-0.004,0.748
			c-0.25,0-0.5,0-0.75,0C163.904,93.542,164.156,93.294,164.408,93.042z"/>
		<path fill-rule="evenodd" clip-rule="evenodd" fill="#E6EEBA" d="M83.967,92.488c0.062,0.436,0.127,0.869,0.189,1.303
			c-0.252,0-0.5,0-0.748,0C83.592,93.357,83.779,92.923,83.967,92.488z"/>
		<path fill-rule="evenodd" clip-rule="evenodd" fill="#D1DCA8" d="M30.826,93.06c0.277,0.242,0.555,0.488,0.83,0.73
			c-0.248,0-0.498,0-0.748,0c-0.061-0.158-0.139-0.312-0.172-0.475C30.721,93.238,30.793,93.144,30.826,93.06z"/>
		<path fill-rule="evenodd" clip-rule="evenodd" fill="#E7EFBC" d="M135.154,93.791c0.27-0.26,0.541-0.52,0.809-0.781l0.143-0.162
			l0.18,0.121c-0.127,0.275-0.254,0.549-0.381,0.822C135.654,93.791,135.404,93.791,135.154,93.791z"/>
		<path fill-rule="evenodd" clip-rule="evenodd" fill="#D1DCA8" d="M3.113,93.052c0.264,0.246,0.529,0.492,0.795,0.738
			c-0.25,0-0.5,0-0.75,0C3.102,93.63,3.025,93.472,3,93.306C2.988,93.228,3.072,93.138,3.113,93.052z"/>
		<path fill-rule="evenodd" clip-rule="evenodd" fill="#6C743E" d="M135.904,93.791c0.127-0.273,0.254-0.547,0.381-0.822
			c0.123,0.275,0.248,0.549,0.369,0.822C136.404,93.791,136.154,93.791,135.904,93.791z"/>
		<path fill-rule="evenodd" clip-rule="evenodd" fill="#D1DCA8" d="M138.342,93.025c0.188,0.256,0.375,0.512,0.562,0.766
			c-0.25,0-0.5,0-0.748,0C138.217,93.537,138.277,93.281,138.342,93.025z"/>
		<path fill-rule="evenodd" clip-rule="evenodd" fill="#E7EFBC" d="M81.891,31.529c1.121,0.104,2.125-0.27,3.094-0.773
			c0.469,0.25,0.938,0.5,1.408,0.75c0.004,0.234,0.006,0.467,0.006,0.701C86.4,32.468,86.4,32.73,86.4,32.99
			c-1.828-0.137-2.014,1.145-2.002,2.445c0.039,3.471,0.15,6.941,0.234,10.41c-0.594,3.139,0.234,6.389-0.76,9.496l0.078-0.086
			c-8.199,0.152-16.398,0.307-24.598,0.457c-0.861-1.34-0.773-2.844-0.764-4.346c0.039-5.859,0.057-11.719,0.082-17.58
			c0.744,0.002,1.49,0.004,2.234,0.006c-0.719,5.484-0.689,11.002-0.781,16.518c-0.037,2.258,0.797,3.23,3.031,2.984
			c1.898,0.795,3.346-1.758,5.234-0.748c2.279,1.221,4.512,0.938,6.766-0.006c2.463,1.326,4.607,0.598,6.387-1.23
			c1.717-1.764,1.521-3.783,0.18-5.719c-0.619-0.895-0.535-1.879-0.535-2.863c1.344-0.107,1.445-1.049,1.402-2.088
			c0.004-0.572,0.006-1.145,0.012-1.715c0.002-0.922,0.002-1.846,0.006-2.771c-0.24-1.545-0.477-3.088-0.715-4.633L81.891,31.529z"
			/>
		<path fill-rule="evenodd" clip-rule="evenodd" fill="#495526" d="M58.672,33.787c-0.025,5.861-0.043,11.721-0.082,17.58
			c-0.01,1.502-0.098,3.006,0.764,4.346c-0.211,0.855-0.426,1.709-0.637,2.566c-0.113,0.604-0.225,1.207-0.338,1.809
			c-0.635-0.01-1.27-0.02-1.902-0.029c-0.131-0.326-0.26-0.654-0.391-0.98c-0.15-0.398-0.299-0.799-0.449-1.199
			c0.414-0.959,0.373-1.67-0.922-1.699c0.736-1.084,1.693-1.971,1.654-3.527c-0.145-5.533-0.139-11.07-0.188-16.604
			c0.002-1.66,0.301-2.996,2.482-2.273L58.672,33.787z"/>
		<path fill-rule="evenodd" clip-rule="evenodd" fill="#F5FDCC" d="M28.748,33.828c0.002,5.479,0.004,10.955,0.004,16.434
			c0.01,0.271,0.02,0.545,0.027,0.814c-0.6,4.555-0.754,4.645-6.852,4c0.033-1.219,0.668-1.898,1.877-1.754
			c3.023,0.363,3.469-1.283,3.391-3.811c-0.143-4.59-0.061-9.186-0.021-13.781C27.182,34.759,26.686,33.179,28.748,33.828z"/>
		<path fill-rule="evenodd" clip-rule="evenodd" fill="#F5FDCC" d="M3.15,51.044c0.002-1.5,0.004-3.002,0.006-4.504
			c-0.006-0.25-0.014-0.496-0.02-0.744c0.557-3.221-0.318-6.52,0.537-9.723c2.334,5.781,2.143,11.707,0.951,17.674
			c-0.037,0.193-0.643,0.271-0.982,0.402c-0.164-0.785-0.328-1.574-0.492-2.363C3.15,51.541,3.15,51.294,3.15,51.044z"/>
		<path fill-rule="evenodd" clip-rule="evenodd" fill="#E7EFBC" d="M58.664,33.775c-2.182-0.723-2.48,0.613-2.482,2.273
			c-1.371,1.016-1.646,4.191-4.707,1.02c-2.473-2.561-1.623-3.24,0.48-4.512C54.648,30.925,57.766,31.519,58.664,33.775z
			 M53.979,34.937c-0.117-0.59-0.389-0.826-0.795-0.658c-0.172,0.07-0.385,0.447-0.33,0.584c0.113,0.279,0.396,0.492,0.609,0.732
			C53.66,35.343,53.857,35.091,53.979,34.937z"/>
		<path fill-rule="evenodd" clip-rule="evenodd" fill="#F5FDCC" d="M33.062,55.224c-2.17,0.416-2.162-1.109-2.148-2.502
			c0.064-6.328,0.174-12.654,0.268-18.982c1.736,0.732,1.182,2.285,1.232,3.578C32.646,43.285,31.891,49.291,33.062,55.224z"/>
		<path fill-rule="evenodd" clip-rule="evenodd" fill="#F5FDCC" d="M0.953,19.488C0.945,15.259,0.936,11.029,0.93,6.798
			c2.678,1.146,1.291,3.418,1.301,5.188C2.244,14.527,2.242,17.138,0.953,19.488z"/>
		<path fill-rule="evenodd" clip-rule="evenodd" fill="#F5FDCC" d="M0.936,5.283c-0.004-0.746-0.008-1.49-0.012-2.234
			c0.711,0.148,1.393,0.355,1.281,1.285C2.119,5.052,1.506,5.162,0.936,5.283z"/>
		<path fill-rule="evenodd" clip-rule="evenodd" fill="#F5FDCC" d="M0.949,2.271c-0.006-0.23,0-0.463,0.014-0.693
			c0.271,0.117,0.543,0.234,0.812,0.35C1.5,2.042,1.227,2.156,0.949,2.271z"/>
		<path fill-rule="evenodd" clip-rule="evenodd" fill="#4C3E20" d="M102.836,5.984c0.475-0.832,0.971-1.648,1.414-2.494
			c1.107-2.113,1.846-1.289,2.504,0.295c-0.018,0.613-0.061,1.229-0.041,1.842c0.043,1.52,0.883,2.764,2.225,3.043
			c1.701,0.355,1.973-1.447,2.623-2.537c0.826-1.375,0.121-3.219,1.336-4.486c4.359,0.496,3.311,3.869,3.504,6.582
			c0.66,1.035-2.438,2.092-0.188,2.846c1.723,0.578,1.768-1.178,1.852-2.424c0.779-1.273,1.559-2.545,2.338-3.818
			c0.389,0.045,0.773,0.088,1.162,0.131c-0.135,0.16-0.145,0.328-0.025,0.502c0.205,1.387,0.035,2.611-1.217,3.535
			c-1.256,0.928-1.752,2.256-1.674,3.803c-0.494,0.65-0.994,0.09-1.49,0.008c-0.736-0.092-1.895,0.08-2.143-0.314
			c-1.994-3.211-4.102-1.58-6.236-0.311c-0.195-0.072-0.383-0.164-0.555-0.277c-0.008-1.027-0.115-2.146-1.496-1.883
			c-1.459,0.279-2.213,1.357-2.193,2.893c-0.6,0.893-1.541,0.611-2.375,0.682c0.033-1.223,0.07-2.445,0.107-3.668
			c0.029-1.037,0.061-2.074,0.09-3.109C102.516,6.542,102.674,6.263,102.836,5.984z"/>
		<path fill-rule="evenodd" clip-rule="evenodd" fill="#95724D" d="M102.268,9.931c-0.037,1.223-0.074,2.445-0.107,3.668
			l0.037-0.045c-2.348-0.314-4.662-0.658-6.049-2.977c-0.287-0.484-0.859-1.119-1.307-1.121c-1.029-0.008-0.703,1.051-0.957,1.68
			c-0.578,1.424-0.08,2.158,0.906,3.408c1.318,1.668,3.828,2.871,3.475,5.635c-0.422,0.525-0.846,1.053-1.27,1.58
			c-5.898-1.24-7.891-4.029-8.029-11.242c1.141-0.254,1.34,1.551,2.744,1.168c-0.4-2.049-0.828-4.105,0.26-6.045
			c2.895,0.006,5.508,0.535,7.375,3.123C99.955,9.609,101.049,10.152,102.268,9.931z"/>
		<path fill-rule="evenodd" clip-rule="evenodd" fill="#4C3E20" d="M96.996,21.759c0.424-0.527,0.848-1.055,1.27-1.58
			c0.475,0.051,0.945,0.1,1.416,0.148c0.322,2.213,0.646,4.428,0.969,6.641c-2.217,2.441-1.07,5.525-1.584,8.291
			c-0.955,0.027-1.912,0.051-2.865,0.076h0.002C95.695,30.765,95.959,26.24,96.996,21.759z"/>
		<path fill-rule="evenodd" clip-rule="evenodd" fill="#E4EEBC" d="M75.156,52.541c-2.254,0.943-4.486,1.227-6.766,0.006
			c-1.889-1.01-3.336,1.543-5.234,0.748c-0.178-5.145,4.254-3.527,6.764-4.35C72.699,48.035,74.764,49.365,75.156,52.541z"/>
		<path fill-rule="evenodd" clip-rule="evenodd" fill="#E7EFBC" d="M73.635,18.542c1.395,0.404,0.191,2.191,1.404,2.693
			c1.318,0.086,0.408-2.023,1.9-1.854c1.158,1.855,0.598,4.811,3.469,5.691c0.547,0.17,0.477,0.928,0.078,1.254
			c-1.883,1.539-4.029-0.084-6.104,0.389c-1.188,0.271-1.311-1.303-1.221-2.562C73.295,22.289,71.168,20.263,73.635,18.542z"/>
		<path fill-rule="evenodd" clip-rule="evenodd" fill="#495526" d="M86.279,60.066c-0.773-0.408-0.297-2.52-2.09-1.531
			c-0.258-0.266-0.514-0.531-0.77-0.799c0.393-0.781,0.855-1.545,0.531-2.48c0,0-0.078,0.086-0.074,0.086
			c0.949,0.322,1.725-0.16,2.521-0.547c0.244,0.018,0.488,0.035,0.732,0.051c2.105,2.059,4.311,1.791,6.746-0.816
			c0.273,0.531,0.547,1.066,0.82,1.598c-0.016,0.211-0.02,0.424-0.016,0.633c-0.828,0.57-0.754,1.443-0.779,2.285
			C91.398,59.24,88.283,56.869,86.279,60.066z"/>
		<path fill-rule="evenodd" clip-rule="evenodd" fill="#495526" d="M84.633,45.845c-0.084-3.469-0.195-6.939-0.234-10.41
			c-0.012-1.301,0.174-2.582,2.002-2.445l0.172,0.229c0.062,2.426,0.129,4.854,0.195,7.279c-0.154,1.781-0.309,3.561-0.461,5.34
			C85.748,45.839,85.189,45.843,84.633,45.845z"/>
		<path fill-rule="evenodd" clip-rule="evenodd" fill="#E5ECB1" d="M90.904,43.544c2.57,2.541,1.207,8.213-2.326,9.686
			c0.008-0.959,0.012-1.92,0.018-2.881c2.15-1.799,2.148-4.332,2.312-6.805H90.904z"/>
		<path fill-rule="evenodd" clip-rule="evenodd" fill="#D1DCA8" d="M86.393,31.505c-0.471-0.25-0.939-0.5-1.408-0.75
			c-0.061-1.217-0.135-2.434-0.176-3.648c-0.025-0.699-1.035-1.826,0.541-1.891c0.832-0.035,1.725,0.652,1.674,1.629
			C86.943,28.406,86.615,29.953,86.393,31.505z"/>
		<path fill-rule="evenodd" clip-rule="evenodd" fill="#E5ECB1" d="M90.904,40.542c0.484-1.568-2.879-1.256-1.578-3.145
			c0.816-1.193,2.043-1.695,4.207-1.275c-2.252,1.045-0.238,3.691-2.625,4.422L90.904,40.542z"/>
		<path fill-rule="evenodd" clip-rule="evenodd" fill="#495526" d="M91.971,5.64c-1.088,1.939-0.66,3.996-0.26,6.045
			c-1.404,0.383-1.604-1.422-2.744-1.168C89.459,8.578,88.51,5.748,91.971,5.64z"/>
		<path fill-rule="evenodd" clip-rule="evenodd" fill="#E5ECB1" d="M92.58,23.597c0.236,0.975-0.359,1.328-0.844,1.617
			c-0.98,0.586-0.502,2.725-2.355,2.256c-0.516-0.131-0.48-0.816-0.248-1.27C89.857,24.781,90.25,22.828,92.58,23.597z"/>
		<path fill-rule="evenodd" clip-rule="evenodd" fill="#D1DCA8" d="M88.596,50.351c-0.006,0.959-0.01,1.92-0.018,2.879
			c-0.482,0.537-0.965,1.076-1.447,1.615c-0.244-0.016-0.488-0.033-0.732-0.051c0.043-2.008-0.311-4.037,0.271-6.023
			C87.311,49.298,87.953,49.824,88.596,50.351z"/>
		<path fill-rule="evenodd" clip-rule="evenodd" fill="#D1DCA8" d="M86.307,45.837c0.152-1.779,0.307-3.559,0.461-5.34
			c0.348,0.045,0.695,0.092,1.047,0.137c0.027,0.207,0.051,0.416,0.07,0.625c0,0.771,0,1.541,0,2.311c0,0.482,0,0.963,0,1.445
			c-0.414,0.24-0.832,0.482-1.248,0.723C86.564,45.894,86.455,45.927,86.307,45.837z"/>
		<path fill-rule="evenodd" clip-rule="evenodd" fill="#E5ECB1" d="M94.037,29.599c-0.352,1.203-0.662,2.256-0.998,3.408
			C91.535,30.787,91.535,30.787,94.037,29.599z"/>
		<path fill-rule="evenodd" clip-rule="evenodd" fill="#E7EFBC" d="M86.059,8.878c-0.521-0.107-0.947-0.373-0.924-0.938
			C85.168,7.214,85.676,6.9,86.363,6.9c0.68-0.004,1.264,0.219,1.094,1.029C87.314,8.611,86.703,8.824,86.059,8.878z"/>
		<path fill-rule="evenodd" clip-rule="evenodd" fill="#E5ECB1" d="M87.158,18.794c-1.074-0.373-1.541,1.83-2.73,0.652
			c-0.141-0.141,0.113-0.984,0.408-1.205c0.912-0.689,1.947-1.289,2.318,0.553H87.158z"/>
		<path fill-rule="evenodd" clip-rule="evenodd" fill="#E5ECB1" d="M87.885,41.259c-0.02-0.209-0.043-0.418-0.07-0.625
			c1.027-0.029,2.061-0.061,3.09-0.092l0.004,0.002c0,1-0.004,2-0.004,3h0.004C89.898,42.783,88.893,42.021,87.885,41.259z"/>
		<path fill-rule="evenodd" clip-rule="evenodd" fill="#D1DCA8" d="M82.59,40.64c0.043,1.039-0.059,1.98-1.402,2.088
			C81.188,41.716,81.197,40.712,82.59,40.64z"/>
		<path fill-rule="evenodd" clip-rule="evenodd" fill="#E5ECB1" d="M89.041,33.296c0.311,0.162,0.512,0.268,0.711,0.375
			c-0.203,0.248-0.371,0.549-0.627,0.719c-0.1,0.064-0.398-0.17-0.605-0.268C88.695,33.845,88.871,33.568,89.041,33.296z"/>
		<path fill-rule="evenodd" clip-rule="evenodd" fill="#D1DCA8" d="M82.607,36.154c-0.004,0.926-0.004,1.85-0.006,2.771
			C81.684,38,81.695,37.076,82.607,36.154z"/>
		<path fill-rule="evenodd" clip-rule="evenodd" fill="#E5ECB1" d="M87.154,18.794c0.357,0.223,0.713,0.445,1.07,0.668
			c-0.135,0.133-0.27,0.266-0.4,0.4c-0.223-0.357-0.445-0.713-0.666-1.068H87.154z"/>
		<path fill-rule="evenodd" clip-rule="evenodd" fill="#E5ECB1" d="M94.547,25.982c-0.127,0.105-0.254,0.209-0.381,0.312
			c-0.039-0.195-0.1-0.389-0.105-0.582c0-0.07,0.135-0.145,0.209-0.215C94.361,25.66,94.455,25.82,94.547,25.982z"/>
		<path fill-rule="evenodd" clip-rule="evenodd" fill="#D1DCA8" d="M81.893,31.521c-0.197-0.381-0.393-0.76-0.59-1.141
			c0.141-0.059,0.281-0.121,0.422-0.184c0.055,0.443,0.109,0.889,0.166,1.332L81.893,31.521z"/>
		<path fill-rule="evenodd" clip-rule="evenodd" fill="#D1DCA8" d="M86.572,33.218L86.4,32.99c0-0.26,0-0.521-0.002-0.783
			c0.252,0.211,0.5,0.422,0.752,0.633C86.957,32.966,86.764,33.093,86.572,33.218z"/>
		<path fill-rule="evenodd" clip-rule="evenodd" fill="#95724D" d="M102.836,5.984c-0.162,0.279-0.32,0.559-0.479,0.838
			c-0.068-0.258-0.139-0.514-0.207-0.771C102.375,5.992,102.604,5.97,102.836,5.984z"/>
		<path fill-rule="evenodd" clip-rule="evenodd" fill="#E5ECB1" d="M126.059,14.994c1.414,0.156,1.629,1.145,1.602,2.301
			c-0.516-0.094-1.514-1.781-1.4,0.209c0.117,2.043,1.139,3.691,3.645,3.541c0.074,0.92,0.576,1.422,1.494,1.506
			c-0.014,3.193,0.148,6.135,4.721,4.006c0.422-0.197,1.582,0.133,1.672,0.436c1.047,3.477,3.523,1.479,5.486,1.582
			c2.182,0.117,3.326-0.617,3.186-2.947c-0.045-0.766,0.234-1.662,0.99-1.869c2.135-0.592,4.92-0.396,3.969-4.025
			c-0.021-0.088,0.596-0.5,0.879-0.467c0.271,0.033,0.664,0.428,0.705,0.709c0.109,0.73,0.246,1.547,0.031,2.223
			c-1.484,4.701,0.723,9.082,1.191,13.598c0.258,2.48-1.998,6.365-4.785,6.963c-2.184,0.467-6.393,4.854-6.629,6.891
			c-0.078,0.684,0.137,1.252,0.699,1.617c1.537,0.996,1.816-1.436,3.254-1.168c-0.154,2.893-1.996,3.326-4.33,3.174
			c-2.582-0.166-2.045-2.123-1.998-3.623c0.152-4.959-0.779-9.953,0.492-14.877c0.266-1.031,0.051-2.121-0.998-2.525
			C139.295,32,139,32.89,138.709,33.427c-0.426,0.199-0.852,0.396-1.275,0.598c-0.977-0.113-1.951-0.223-2.928-0.334
			c0.223-1.172-0.34-2.045-1.082-2.852c-0.732-1.928-2.846-2-4.188-3.115c-0.764-1.611-1.672-3.051-3.727-3.115
			c-0.965-2.504,0.582-6.025-3.025-7.457c-0.006-0.189,0.008-0.379,0.039-0.566c1.064,0.121,1.529-0.381,1.467-1.424
			c0.254-0.277,0.508-0.557,0.762-0.836C125.188,14.548,125.621,14.771,126.059,14.994z"/>
		<path fill-rule="evenodd" clip-rule="evenodd" fill="#495526" d="M167.197,83.318c-0.775,0.018-1.547,0.035-2.32,0.051
			c-0.637-2.162-0.473-4.338-0.105-6.516c0.525-3.633,0.453-7.273,0.125-10.916c-0.098-0.473-0.195-0.947-0.293-1.418
			c0.928-1.088-0.508-1.963-0.252-3.027c0.83-3.467-0.857-4.049-3.744-3.172c-4.463-0.547-8.93-0.525-13.398-0.09
			c-2.984,0.006-6.004-1.029-8.936,0.34c-0.729-0.42-1.465-0.561-2.221-0.064c-0.197-0.016-0.385-0.072-0.559-0.166
			c-0.086-0.275-0.17-0.551-0.256-0.824c0.592-1.387,2.436-1.014,3.143-2.244c5.434,0.311,10.871,0.447,16.297-0.193
			c3.074-0.197,6.316,1.396,9.203-0.852l-0.051,0.076c0.324,0.105,0.83-0.35,0.977,0.312c0.801,0.051,1.602,0.105,2.402,0.156
			C165.693,64.285,168.283,73.802,167.197,83.318z"/>
		<path fill-rule="evenodd" clip-rule="evenodd" fill="#2A360C" d="M138.381,55.271c-0.707,1.23-2.551,0.857-3.143,2.244
			c-3.77,0.508-7.549,0.246-11.326,0.146c-0.27-0.355-0.523-0.336-0.766,0.029c-2.258,0.029-4.52,0.059-6.777,0.088
			c-0.213-0.09-0.434-0.145-0.662-0.16c0.252-0.824,0.5-1.652,0.75-2.477c0.559,0.6,1.223,0.275,1.857,0.215
			c0.367,0.039,0.73,0.078,1.096,0.117c4.453-0.006,8.926-0.266,13.354,0.072c3.088,0.24,3.531-1.049,3.465-3.6
			c-0.117-4.576-0.012-9.158,0-13.734c1.219-2,0.238-2.764-1.684-3c-0.012-0.219-0.086-0.416-0.219-0.59
			c0.035-0.271,0.07-0.545,0.105-0.816l0.074-0.115c0.977,0.111,1.951,0.221,2.928,0.334c0.197,0.613,0.4,1.227,0.598,1.84
			c-1.061,2.598-0.684,5.119,0.396,7.605C138.412,47.404,138.395,51.337,138.381,55.271z"/>
		<path fill-rule="evenodd" clip-rule="evenodd" fill="#2A360C" d="M167.209,54.771c-0.801-0.051-1.602-0.105-2.402-0.156
			c0.219-2.184,0.402-4.365,0.029-6.551c0.004-0.764,0.01-1.527,0.012-2.291c0.135-2.986,0.268-5.975,0.4-8.961
			c0.656,0,1.311,0.002,1.965,0.004C167.211,42.8,167.211,48.787,167.209,54.771z"/>
		<path fill-rule="evenodd" clip-rule="evenodd" fill="#F5FDCC" d="M165.248,36.812c-0.133,2.986-0.266,5.975-0.4,8.961
			c-1.9-2.691-1.717-10.914,0.275-12.33C164.916,34.574,164.848,35.703,165.248,36.812z"/>
		<path fill-rule="evenodd" clip-rule="evenodd" fill="#F5FDCC" d="M163.881,54.226c-2.887,2.248-6.129,0.654-9.203,0.852
			c0.035-1.82,1.336-1.889,2.611-1.752C159.494,53.556,161.686,53.919,163.881,54.226z"/>
		<path fill-rule="evenodd" clip-rule="evenodd" fill="#B0BD8B" d="M138.428,43.47c-1.08-2.486-1.457-5.008-0.396-7.605l0.32,0.016
			l0.318-0.021C138.801,38.402,139.438,40.962,138.428,43.47z"/>
		<path fill-rule="evenodd" clip-rule="evenodd" fill="#F5FDCC" d="M164.836,48.064c0.373,2.186,0.189,4.367-0.029,6.551
			c-0.146-0.662-0.652-0.207-0.977-0.312C163.629,52.136,162.08,49.753,164.836,48.064z"/>
		<path fill-rule="evenodd" clip-rule="evenodd" fill="#495526" d="M165.248,36.812c-0.4-1.109-0.332-2.238-0.125-3.369
			c0.449-1.092,1.197-0.752,1.945-0.41c0.555,1.242,0.291,2.516,0.145,3.783C166.559,36.814,165.904,36.812,165.248,36.812z"/>
		<path fill-rule="evenodd" clip-rule="evenodd" fill="#6C743E" d="M138.67,35.859l-0.318,0.021l-0.32-0.016
			c-0.197-0.613-0.4-1.227-0.598-1.84c0.424-0.201,0.85-0.398,1.275-0.598C138.695,34.238,138.684,35.048,138.67,35.859z"/>
		<path fill-rule="evenodd" clip-rule="evenodd" fill="#F5FDCC" d="M15.172,57.91c1.74-0.461,3.48-0.314,5.221,0
			C18.65,60.107,16.912,60.138,15.172,57.91z"/>
		<path fill-rule="evenodd" clip-rule="evenodd" fill="#D1DCA8" d="M21.906,57.814c1.246-0.492,2.498-0.314,3.75-0.025
			C24.422,60.134,23.17,60.037,21.906,57.814z"/>
		<path fill-rule="evenodd" clip-rule="evenodd" fill="#6C743E" d="M27.289,57.312c1.887-0.217,1.396,1.043,1.283,2.064
			C27.709,58.96,27.08,58.396,27.289,57.312z"/>
		<path fill-rule="evenodd" clip-rule="evenodd" fill="#D1DCA8" d="M55.637,57.878c0.15,0.4,0.299,0.801,0.449,1.199
			c-0.934,0.107-1.68-0.113-1.947-1.143C54.639,57.916,55.139,57.896,55.637,57.878z"/>
		<path fill-rule="evenodd" clip-rule="evenodd" fill="#95724D" d="M164.896,65.937c0.328,3.643,0.4,7.283-0.125,10.916
			c-0.316-0.133-0.635-0.266-0.951-0.398c-0.072-1.23-0.143-2.461-0.213-3.691c0.004-0.732,0.01-1.465,0.018-2.199
			c-0.008-0.764-0.014-1.531-0.018-2.295c0.08-0.234,0.082-0.471,0.016-0.705c0.121-0.166,0.152-0.344,0.098-0.543
			c0.238-0.312,0.48-0.627,0.719-0.939C164.586,66.013,164.738,65.962,164.896,65.937z"/>
		<path fill-rule="evenodd" clip-rule="evenodd" fill="#F5FDCC" d="M160.607,58.32c2.887-0.877,4.574-0.295,3.744,3.172
			c-0.256,1.064,1.18,1.939,0.252,3.027c-0.449-0.17-1.299-0.361-1.291-0.508C163.434,61.607,161.676,60.13,160.607,58.32z"/>
		<path fill-rule="evenodd" clip-rule="evenodd" fill="#F5FDCC" d="M163.625,70.564c-0.008,0.734-0.014,1.467-0.018,2.199
			C162.768,72.025,162.771,71.291,163.625,70.564z"/>
		<path fill-rule="evenodd" clip-rule="evenodd" fill="#F5FDCC" d="M163.623,67.564c0.066,0.234,0.064,0.471-0.016,0.705
			c-0.076-0.166-0.172-0.326-0.213-0.502C163.383,67.716,163.541,67.632,163.623,67.564z"/>
		<path fill-rule="evenodd" clip-rule="evenodd" fill="#F5FDCC" d="M164.439,66.082c-0.238,0.312-0.48,0.627-0.719,0.939
			C163.959,66.708,164.201,66.394,164.439,66.082z"/>
		<path fill-rule="evenodd" clip-rule="evenodd" fill="#60462F" d="M115.707,57.619c0.229,0.016,0.449,0.07,0.662,0.16
			c-0.283,1.506-0.566,3.016-0.852,4.523C114.15,60.681,114.947,59.15,115.707,57.619z"/>
		<path fill-rule="evenodd" clip-rule="evenodd" fill="#60462F" d="M114.916,76.568c0.012-0.611,0.027-1.223,0.039-1.834
			C116.611,75.38,114.896,75.955,114.916,76.568z"/>
		<path fill-rule="evenodd" clip-rule="evenodd" fill="#60462F" d="M115.162,72.572c-0.391-0.645-0.131-1.049,0.492-1.312
			C115.959,71.873,115.895,72.345,115.162,72.572z"/>
		<path fill-rule="evenodd" clip-rule="evenodd" fill="#495526" d="M123.146,57.691c0.242-0.365,0.496-0.385,0.766-0.029
			C123.656,57.671,123.402,57.681,123.146,57.691z"/>
		<path fill-rule="evenodd" clip-rule="evenodd" fill="#60462F" d="M112.062,48.869c-2.842,0.371-3.506,3.781-6.158,4.42
			c-0.777-1.25-1.439-2.441-1.574-4.053c-0.301-3.625-1.23-3.924-4.676-1.912c3.486,0.195,3.492,0.197,1.945,3.307
			c-0.332,0.664-0.719,1.301-1.08,1.953c-3.283-1.385-4.922-3.584-3.828-7.309c0.459-1.57,0.334-3.203-0.195-4.775
			c-0.615-1.826,0.467-2.174,1.916-2.201c0.273,0.814,0.518,1.639,0.822,2.441c0.605,1.592,1.725,2.527,3.434,1.865
			c1.646-0.637,1.855-2.219,1.66-3.742c-0.213-1.658-1.289-2.596-2.959-2.818c0.01-1.25,0.016-2.498,0.027-3.748
			c0.703-0.146,1.705-0.664,2.062-0.377c3.098,2.479,2.957-0.129,3.314-2.008c1.992,0.85,3.986,1.699,5.982,2.549
			c-0.043,0.963-0.281,1.967,0.541,2.762c-0.742,5.066,1.104,10.023,0.645,15.078c-0.424-0.252-0.85-0.502-1.273-0.754
			C112.465,49.318,112.264,49.095,112.062,48.869z"/>
		<path fill-rule="evenodd" clip-rule="evenodd" fill="#E7EFBC" d="M113.941,50.3c0.459-5.055-1.387-10.012-0.646-15.078
			c2.336-0.596,4.035,1.189,6.094,1.633c0.781,1.539,1.863,2.564,3.76,2.199c0.652,1.115,1.568,1.662,2.889,1.352
			c2.367,1,4.73,1.791,6.982-0.27c1.562,0.182,1.334-2.623,3.209-1.924c-0.012,4.576-0.117,9.158,0,13.734
			c0.066,2.551-0.377,3.84-3.465,3.6c-4.428-0.338-8.9-0.078-13.354-0.072c-0.332-0.35-0.695-0.402-1.096-0.117
			c-0.635,0.061-1.299,0.385-1.857-0.215C113.83,54.458,114.889,51.857,113.941,50.3z M117.568,40.601
			c0.41-1.596,0.357-3.496-1.725-3.273c-1.732,0.186-1.047,2.359-0.834,3.477c0.561,2.953,0.48,5.926,0.775,8.877
			c0.156,1.562,0.43,4.389,2.596,3.645c2.588-0.887,5.275-0.105,7.629-1.178c1.871-0.852,5.021,2.775,5.812-1.672
			c0.004-0.01,0.91,0.184,1.402,0.207c0.814,0.037,0.979-0.467,1.004-1.191c0.07-2.113-2.73-5.682-4.445-4.975
			c-3.52,1.455-6.334-0.207-9.504-0.826C118.15,43.273,116.996,43.027,117.568,40.601z"/>
		<path fill-rule="evenodd" clip-rule="evenodd" fill="#F5FDCC" d="M86.279,60.066c2.004-3.197,5.119-0.826,7.623-1.521
			c-0.219,9.367-0.844,18.672-4.158,27.574c-1.805,0.439-0.828,1.984-1.188,3c-0.27,0.057-0.537,0.113-0.807,0.168
			c-0.139-0.055-0.273-0.043-0.4,0.039c-0.262-0.008-0.48,0.088-0.656,0.279c-0.08-8.354-0.156-16.705-0.25-25.057
			C86.43,63.054,86.338,61.56,86.279,60.066z M88.996,80.839c2.014-6.393,2.793-12.941,2.854-19.604
			c0.012-1.424-1.059-1.102-1.801-1.309c-0.463-0.129-0.801-0.156-0.896,0.619C88.326,67.3,88.709,74.058,88.996,80.839z"/>
		<path fill-rule="evenodd" clip-rule="evenodd" fill="#844B39" d="M95.541,76.548c-0.02-0.479-0.039-0.957-0.059-1.436
			c0.734-0.008,1.473-0.018,2.209-0.025c0.848,0.969,1.779,0.551,2.691,0.143c2.707-1.211,5.59-1.811,8.459-2.451
			c-0.217,2.494-0.434,4.99-0.654,7.482c-1.045-0.092-1.863,1.678-2.615,0.926c-3.512-3.516-6.305,0.279-9.406,0.705
			c-0.25-0.016-0.498-0.029-0.75-0.047c-0.016-0.537-0.033-1.074-0.053-1.609C96.443,79.056,96.441,77.822,95.541,76.548z"/>
		<path fill-rule="evenodd" clip-rule="evenodd" fill="#A4573F" d="M96.166,81.892c3.102-0.426,5.895-4.221,9.406-0.705
			c0.752,0.752,1.57-1.018,2.615-0.926c-0.225,2.312,1.9,4.889-0.775,6.926c-2.35-1.127-4.871-1.451-7.434-1.588
			C98.689,84.382,98.488,82.046,96.166,81.892z"/>
		<path fill-rule="evenodd" clip-rule="evenodd" fill="#A4573F" d="M108.842,72.779c-2.869,0.641-5.752,1.24-8.459,2.451
			c-0.912,0.408-1.844,0.826-2.691-0.145c0.24-2.01,0.482-4.018,0.723-6.027c0.055-0.215,0.08-0.432,0.084-0.652
			c0.713-0.061,1.422-0.123,2.139-0.182c0.193,0.992,0.463,2.234,1.514,2.303c1.102,0.072,1.949-0.822,2.059-2.1
			c1.047-0.035,2.094-0.07,3.145-0.107C108.199,69.689,109.006,71.072,108.842,72.779z"/>
		<path fill-rule="evenodd" clip-rule="evenodd" fill="#844B39" d="M107.354,68.32c-1.051,0.037-2.098,0.072-3.145,0.107
			c-1.383-1.391-0.801-2.938-0.299-4.441c0.664-1.994,1.322-3.969,0.338-6.043c1.42-0.018,3.895-0.582,3.912,0.738
			c0.037,2.584,1.596,5.168,0.26,7.762C108.09,67.083,107.709,67.695,107.354,68.32z"/>
		<path fill-rule="evenodd" clip-rule="evenodd" fill="#D48E54" d="M104.248,57.943c0.984,2.074,0.326,4.049-0.338,6.043
			c-0.502,1.504-1.084,3.051,0.299,4.441c-0.109,1.277-0.957,2.172-2.059,2.1c-1.051-0.068-1.32-1.311-1.514-2.303
			c-0.418-3.365,1.018-6.42,1.635-9.613C102.928,58.388,103.588,58.164,104.248,57.943z"/>
		<path fill-rule="evenodd" clip-rule="evenodd" fill="#60462F" d="M102.271,58.611c-0.617,3.193-2.053,6.248-1.635,9.613
			c-0.717,0.059-1.426,0.121-2.139,0.182c-0.488-1.119-0.828-2.336-1.496-3.332c-1.07-1.588,0.684-3.15-0.156-4.666
			C98.928,60.632,99.771,57.125,102.271,58.611z"/>
		<path fill-rule="evenodd" clip-rule="evenodd" fill="#844B39" d="M101.369,36.044c1.67,0.223,2.746,1.16,2.959,2.818
			c0.195,1.523-0.014,3.105-1.66,3.742c-1.709,0.662-2.828-0.273-3.434-1.865c-0.305-0.803-0.549-1.627-0.822-2.441
			c0.01-0.242,0.02-0.484,0.029-0.727c-0.002,0,0.373-0.006,0.373-0.006s0.375,0.002,0.371,0.002
			C100.328,37.654,100.021,35.664,101.369,36.044z"/>
		<path fill-rule="evenodd" clip-rule="evenodd" fill="#A4573F" d="M100.52,52.583c0.361-0.652,0.748-1.289,1.08-1.953
			c1.547-3.109,1.541-3.111-1.945-3.307c3.445-2.012,4.375-1.713,4.676,1.912c0.135,1.611,0.797,2.803,1.574,4.053
			C103.373,56.13,102.641,56.035,100.52,52.583z"/>
		<path fill-rule="evenodd" clip-rule="evenodd" fill="#60462F" d="M111.893,76.533c-0.07-1.328,0.004-2.566-0.768-3.891
			c-1.551-2.654,0.678-5.291,0.578-8c-0.006-0.148,0.756-0.527,0.873-0.438c0.344,0.27,0.75,0.719,0.76,1.107
			c0.074,3.756,1.09,7.51,0.037,11.266C112.881,76.562,112.387,76.548,111.893,76.533z"/>
		<path fill-rule="evenodd" clip-rule="evenodd" fill="#60462F" d="M113.42,83.281c1.094,1.121,0.602,2.537,0.711,3.842
			c0.273,3.303-1.059,3.881-3.719,2.174l-0.012-0.006c0.061-1.812-0.207-3.676,0.848-5.326
			C112.062,84.023,112.861,84.029,113.42,83.281z"/>
		<path fill-rule="evenodd" clip-rule="evenodd" fill="#844B39" d="M113.42,83.281c-0.559,0.748-1.357,0.742-2.172,0.684
			c0.141-2.484-0.611-5.043,0.645-7.432c0.494,0.016,0.988,0.029,1.48,0.045C113.389,78.814,113.404,81.048,113.42,83.281z"/>
		<path fill-rule="evenodd" clip-rule="evenodd" fill="#D48E54" d="M96.166,81.892c2.322,0.154,2.523,2.49,3.812,3.707
			c-0.887,0.371-0.619,2.143-2.033,1.789c-1.193-0.299-1.77-1.17-1.939-2.445c-0.113-0.834-0.602-1.617-0.924-2.424
			c0.111-0.225,0.223-0.449,0.334-0.674C95.668,81.863,95.916,81.876,96.166,81.892z"/>
		<path fill-rule="evenodd" clip-rule="evenodd" fill="#60462F" d="M98.414,69.058c-0.24,2.01-0.482,4.018-0.723,6.027
			c-0.736,0.01-1.475,0.02-2.209,0.027C95.604,72.681,94.275,69.546,98.414,69.058z"/>
		<path fill-rule="evenodd" clip-rule="evenodd" fill="#6C743E" d="M113.135,52.378c0.086,0.709,0.008,1.229-0.623,1.25
			c-0.777,0.025-1.471-0.338-1.756-1.07c-0.271-0.695,0.139-1.248,0.848-1.287C112.426,51.224,112.908,51.802,113.135,52.378z"/>
		<path fill-rule="evenodd" clip-rule="evenodd" fill="#60462F" d="M99.189,37.568l-0.375-0.002c0,0-0.375,0.006-0.373,0.006
			c-0.527-0.965-2.381-0.604-2.24-2.236c0.953-0.025,1.91-0.049,2.865-0.076C99.107,36.029,99.146,36.798,99.189,37.568z"/>
		<path fill-rule="evenodd" clip-rule="evenodd" fill="#60462F" d="M95.541,76.548c0.9,1.273,0.902,2.508-0.178,3.688
			C96.275,79.044,92.99,77.656,95.541,76.548z"/>
		<path fill-rule="evenodd" clip-rule="evenodd" fill="#60462F" d="M94.682,56.259c-0.004-0.209,0-0.422,0.016-0.633
			c0.504,0.033,1.219,0.109,1.043,0.715C95.514,57.125,95.018,56.669,94.682,56.259z"/>
		<path fill-rule="evenodd" clip-rule="evenodd" fill="#60462F" d="M110.412,89.296c-0.047,0.229-0.094,0.455-0.141,0.684
			c-0.111-0.062-0.223-0.127-0.336-0.189c0.154-0.166,0.311-0.336,0.467-0.5C110.4,89.291,110.412,89.296,110.412,89.296z"/>
		<path fill-rule="evenodd" clip-rule="evenodd" fill="#60462F" d="M108.59,54.208c-0.072-0.027-0.146-0.051-0.221-0.078
			c0.031-0.082,0.043-0.184,0.102-0.236c0.027-0.025,0.139,0.045,0.213,0.068C108.654,54.044,108.623,54.126,108.59,54.208z"/>
		<path fill-rule="evenodd" clip-rule="evenodd" fill="#6C743E" d="M112.062,48.869c0.201,0.227,0.402,0.449,0.605,0.678
			C111.801,49.917,112.115,49.228,112.062,48.869z"/>
		<path fill-rule="evenodd" clip-rule="evenodd" fill="#495526" d="M2.945,68.257c0.619,4.533,0.273,9.062-0.096,13.588
			c-0.24-0.041-0.559,0.004-0.709-0.137C-0.072,79.654,0.512,70.099,2.945,68.257z"/>
		<path fill-rule="evenodd" clip-rule="evenodd" fill="#6C743E" d="M5.523,57.695c-0.381,1.123-1.5,0.641-2.221,1.021
			C3.469,57.13,4.191,56.748,5.523,57.695z"/>
		<polygon fill-rule="evenodd" clip-rule="evenodd" fill="#495526" points="1.137,57.869 1.303,57.58 1.424,57.892 		"/>
		<path fill-rule="evenodd" clip-rule="evenodd" fill="#495526" d="M3.137,45.796c0.006,0.248,0.014,0.494,0.02,0.744
			c-0.096-0.178-0.209-0.35-0.271-0.539C2.873,45.966,3.049,45.865,3.137,45.796z"/>
		<path fill-rule="evenodd" clip-rule="evenodd" fill="#6C743E" d="M28.779,51.076c-0.008-0.27-0.018-0.543-0.027-0.814
			c0.094,0.193,0.211,0.379,0.268,0.58C29.033,50.894,28.863,50.996,28.779,51.076z"/>
		<path fill-rule="evenodd" clip-rule="evenodd" fill="#495526" d="M3.15,51.044c0,0.25,0,0.496,0,0.742
			c-0.092-0.178-0.203-0.352-0.264-0.539C2.877,51.212,3.059,51.113,3.15,51.044z"/>
		<path fill-rule="evenodd" clip-rule="evenodd" fill="#4C3E20" d="M126.059,14.994c-0.438-0.223-0.871-0.445-1.307-0.668
			c-0.033-0.707-0.068-1.416-0.102-2.123c2.582-1.191,2.715-3.463,2.578-5.852c0.125-0.627,0.25-1.252,0.375-1.879
			c0.143-0.82,0.574-1.322,1.461-1.316c0.508,3.953-0.613,7.58-2.23,11.107C126.576,14.507,126.318,14.751,126.059,14.994z"/>
		<path fill-rule="evenodd" clip-rule="evenodd" fill="#E7EFBC" d="M129.904,21.044c-2.506,0.15-3.527-1.498-3.645-3.541
			c-0.113-1.99,0.885-0.303,1.4-0.209C129.705,17.767,129.803,19.408,129.904,21.044z"/>
		<path fill-rule="evenodd" clip-rule="evenodd" fill="#E7EFBC" d="M133,12.48c-0.686-0.039-1.092-0.322-1.043-0.859
			c0.025-0.264,0.398-0.639,0.672-0.703c0.566-0.131,0.9,0.273,0.846,0.811C133.447,12.011,133.141,12.267,133,12.48z"/>
		<path fill-rule="evenodd" clip-rule="evenodd" fill="#2A360C" d="M83.951,55.255c0.324,0.936-0.139,1.699-0.531,2.48
			c-7.152,0.014-14.305,0.014-21.457,0.051c-1.094,0.004-2.238-0.15-3.246,0.49c0.211-0.855,0.426-1.709,0.637-2.564
			C67.553,55.562,75.752,55.408,83.951,55.255z"/>
		<path fill-rule="evenodd" clip-rule="evenodd" fill="#6C743E" d="M84.359,62.246c0.689,1.025,0.676,2.053,0.02,3.086
			C83.986,64.306,84.002,63.277,84.359,62.246z"/>
		<path fill-rule="evenodd" clip-rule="evenodd" fill="#6C743E" d="M84.389,84.736c0.465,0.285,0.473,0.572,0.002,0.863
			C84.391,85.31,84.391,85.021,84.389,84.736z"/>
		<path fill-rule="evenodd" clip-rule="evenodd" fill="#6C743E" d="M84.342,72.742c0.438,0.271,0.461,0.555,0.025,0.85
			C84.359,73.308,84.35,73.025,84.342,72.742z"/>
		<path fill-rule="evenodd" clip-rule="evenodd" fill="#495526" d="M138.104,73.535c0,0.254,0.004,0.51,0.004,0.764
			c-0.086-0.18-0.191-0.355-0.242-0.549C137.854,73.705,138.02,73.609,138.104,73.535z"/>
		<path fill-rule="evenodd" clip-rule="evenodd" fill="#6C743E" d="M136.189,73.599c-0.004-0.289-0.008-0.576-0.012-0.865
			C136.631,73.015,136.639,73.302,136.189,73.599z"/>
		<path fill-rule="evenodd" clip-rule="evenodd" fill="#844B39" d="M127.604,4.472c-0.125,0.627-0.25,1.252-0.375,1.879
			c-4.191,0.479-2.01,3.771-2.578,5.852c0.033,0.707,0.068,1.416,0.102,2.123c-0.254,0.279-0.508,0.559-0.762,0.836
			c-0.703-3.227-2.541-3.881-5.344-2.359c-0.076-1.547,0.42-2.875,1.676-3.803c1.252-0.924,1.422-2.148,1.217-3.537
			c1.416-0.182,2.566-0.625,2.379-2.395c0.258-0.746,1-0.465,1.496-0.705C125.943,3.275,126.627,4.025,127.604,4.472z"/>
		<path fill-rule="evenodd" clip-rule="evenodd" fill="#95724D" d="M127.604,4.472c-0.977-0.447-1.66-1.197-2.189-2.109
			c1.553-1.281,2.852-1.393,3.65,0.791C128.178,3.15,127.746,3.652,127.604,4.472z"/>
		<path fill-rule="evenodd" clip-rule="evenodd" fill="#95724D" d="M123.918,3.068c0.188,1.77-0.963,2.213-2.379,2.395
			c-0.119-0.172-0.109-0.34,0.025-0.5C121.775,3.623,123.111,3.673,123.918,3.068z"/>
		<path fill-rule="evenodd" clip-rule="evenodd" fill="#E5ECB1" d="M112.896,1.646c-1.215,1.268-0.51,3.111-1.336,4.486
			c-0.65,1.09-0.922,2.893-2.623,2.537c-1.342-0.279-2.182-1.523-2.225-3.043c-0.02-0.613,0.023-1.229,0.041-1.842
			C108.4,1.914,110.389,1.035,112.896,1.646z"/>
		<path fill-rule="evenodd" clip-rule="evenodd" fill="#844B39" d="M118.064,8.65c-0.084,1.246-0.129,3.002-1.852,2.424
			c-2.25-0.754,0.848-1.811,0.188-2.846C116.955,8.369,117.51,8.509,118.064,8.65z"/>
		<path fill-rule="evenodd" clip-rule="evenodd" fill="#D1DCA8" d="M87.35,89.326c0.127-0.082,0.262-0.094,0.4-0.039
			c-0.002,0-0.213,0.25-0.213,0.25L87.35,89.326z"/>
		<path fill-rule="evenodd" clip-rule="evenodd" fill="#2A360C" d="M86.67,48.771c-0.582,1.986-0.229,4.016-0.271,6.023
			c-0.797,0.387-1.572,0.869-2.521,0.547c0.99-3.107,0.162-6.357,0.756-9.496c0.557-0.002,1.115-0.006,1.674-0.008
			c0.148,0.09,0.258,0.057,0.33-0.1C86.646,46.75,86.658,47.761,86.67,48.771z"/>
		<path fill-rule="evenodd" clip-rule="evenodd" fill="#E4EEBC" d="M53.979,34.937c-0.121,0.154-0.318,0.406-0.516,0.658
			c-0.213-0.24-0.496-0.453-0.609-0.732c-0.055-0.137,0.158-0.514,0.33-0.584C53.59,34.111,53.861,34.347,53.979,34.937z"/>
		<path fill-rule="evenodd" clip-rule="evenodd" fill="#D48E54" d="M108.225,11.908c0.172,0.113,0.359,0.205,0.555,0.275
			c0.797,2.076,1.486,4.146,4.254,4.494c1.398,0.174,1.045,1.754,1.396,2.738c-0.547,0.369-1.092,0.736-1.633,1.105
			c-3.357-3.061-6.082-2.293-7.352,2.072c-1.834-1.037-3.67-2.076-5.502-3.111c-0.26-2.359,1.867-3.812,2.254-5.928l-0.037,0.045
			c0.834-0.07,1.775,0.211,2.375-0.682C105.764,12.58,106.994,12.244,108.225,11.908z"/>
		<path fill-rule="evenodd" clip-rule="evenodd" fill="#844B39" d="M114.436,19.416c-0.357-0.984-0.004-2.564-1.402-2.738
			c-2.768-0.348-3.457-2.418-4.254-4.494c2.135-1.268,4.242-2.898,6.236,0.312c0.248,0.395,1.406,0.223,2.143,0.312
			c0.391,2.533,1.256,4.77,3.744,5.99c-0.721,1.465-1.646,2.863-1.51,4.611c-2.104,0.459-2.113-2.451-3.938-2.443
			C115.443,20.234,115.154,19.681,114.436,19.416z"/>
		<path fill-rule="evenodd" clip-rule="evenodd" fill="#60462F" d="M120.902,18.798c-2.488-1.221-3.354-3.457-3.744-5.99
			c0.496,0.084,0.996,0.645,1.49-0.006c2.801-1.521,4.639-0.867,5.342,2.359c0.062,1.043-0.402,1.545-1.467,1.424
			c-0.389,0.195-0.775,0.389-1.162,0.584c0.1,0.172,0.199,0.342,0.301,0.512c0.275-0.176,0.549-0.352,0.822-0.529
			c3.607,1.432,2.061,4.953,3.025,7.457c-1.084-0.072-2.031,1.51-3.209,0.262C122.768,22.63,124.633,20.072,120.902,18.798z"/>
		<path fill-rule="evenodd" clip-rule="evenodd" fill="#844B39" d="M108.225,11.908c-1.23,0.336-2.461,0.672-3.689,1.01
			c-0.02-1.535,0.734-2.613,2.193-2.893C108.109,9.761,108.217,10.88,108.225,11.908z"/>
		<path fill-rule="evenodd" clip-rule="evenodd" fill="#60462F" d="M102.197,13.554c-0.387,2.115-2.514,3.568-2.254,5.928
			c-0.088,0.281-0.176,0.562-0.262,0.846c-0.471-0.049-0.941-0.098-1.416-0.148c0.354-2.764-2.156-3.967-3.475-5.635
			c-0.986-1.25-1.484-1.984-0.906-3.408c0.254-0.629-0.072-1.688,0.957-1.68c0.447,0.002,1.02,0.637,1.307,1.121
			C97.535,12.896,99.85,13.24,102.197,13.554z"/>
		<path fill-rule="evenodd" clip-rule="evenodd" fill="#A4573F" d="M99.682,20.328c0.086-0.283,0.174-0.564,0.262-0.846
			c1.832,1.035,3.668,2.074,5.5,3.109c0.451,0.705,0.902,1.412,1.355,2.119c1.311,3.189,6.322,5.424,10.465,4.67
			c1.902,0.879,3.648,2.15,5.836,2.303c-0.029,0.982-0.059,1.967-0.088,2.949c-1.873,0.189-3.041-1.936-4.986-1.512
			c-1.758-0.221-3.516-0.439-5.27-0.66c-1.996-0.85-3.99-1.699-5.984-2.549c-1.506-1.41-2.305-4.129-5.27-2.848
			c-0.281-0.031-0.568-0.064-0.852-0.096C100.328,24.755,100.004,22.541,99.682,20.328z"/>
		<path fill-rule="evenodd" clip-rule="evenodd" fill="#95724D" d="M100.65,26.968c0.283,0.031,0.57,0.064,0.852,0.096
			c-0.035,1.744-0.072,3.488-0.105,5.232c-0.012,1.25-0.018,2.498-0.027,3.748c-1.348-0.381-1.041,1.609-2.184,1.523
			c-0.039-0.77-0.078-1.539-0.119-2.309C99.58,32.494,98.434,29.41,100.65,26.968z"/>
		<path fill-rule="evenodd" clip-rule="evenodd" fill="#E6EEBA" d="M86.67,48.771c-0.012-1.01-0.023-2.021-0.033-3.033
			c0.416-0.24,0.834-0.482,1.248-0.723c0.484-0.064,1.076-0.105,1.076-0.723c-0.002-0.617-0.596-0.656-1.076-0.723
			c0-0.77,0-1.539,0-2.311c1.008,0.762,2.014,1.523,3.023,2.285c-0.164,2.473-0.162,5.006-2.312,6.805
			C87.953,49.824,87.311,49.298,86.67,48.771z"/>
		<path fill-rule="evenodd" clip-rule="evenodd" fill="#E5ECB1" d="M87.885,43.57c0.48,0.066,1.074,0.105,1.076,0.723
			c0,0.617-0.592,0.658-1.076,0.723C87.885,44.533,87.885,44.052,87.885,43.57z"/>
		<path fill-rule="evenodd" clip-rule="evenodd" fill="#95724D" d="M122.299,24.873c1.18,1.246,2.127-0.336,3.211-0.264
			c2.055,0.064,2.963,1.504,3.727,3.115c-1.734,0.375-3.225-0.592-5.26-1.414c1.074,2.934,2.484,4.451,5.129,4.514
			c0.09,2.475,1.068,4.033,3.85,3.738c0.238,0.502,0.477,1.004,0.713,1.506l0.014-0.033c-2.283,1.924-6.443,0.557-7.645,4.371
			c-1.32,0.311-2.236-0.236-2.891-1.352c0.828-0.682,0.766-1.672,0.906-2.592c1.168,0.004,2.775,0.549,3.234-0.789
			c0.434-1.268-0.688-2.416-1.727-3.275c-0.461-0.381-0.965-0.713-1.449-1.066c-1.316-2.184-2.635-4.367-3.951-6.551
			C120.873,24.81,121.586,24.841,122.299,24.873z"/>
		<path fill-rule="evenodd" clip-rule="evenodd" fill="#844B39" d="M129.105,30.824c-2.645-0.062-4.055-1.58-5.129-4.514
			c2.035,0.822,3.525,1.789,5.26,1.414c1.342,1.115,3.455,1.188,4.188,3.115C131.982,31.455,130.545,30.738,129.105,30.824z"/>
		<path fill-rule="evenodd" clip-rule="evenodd" fill="#60462F" d="M129.105,30.824c1.439-0.086,2.877,0.631,4.318,0.016
			c0.742,0.807,1.305,1.68,1.082,2.852l-0.074,0.115c-0.25,0.23-0.502,0.463-0.754,0.693c-0.242,0.01-0.482,0.031-0.723,0.062
			C130.174,34.857,129.195,33.298,129.105,30.824z"/>
		<path fill-rule="evenodd" clip-rule="evenodd" fill="#4C3E20" d="M122.484,17.152c-0.273,0.178-0.547,0.354-0.822,0.529
			c-0.102-0.17-0.201-0.34-0.301-0.512c0.387-0.195,0.773-0.389,1.162-0.584C122.492,16.773,122.479,16.962,122.484,17.152z"/>
		<path fill-rule="evenodd" clip-rule="evenodd" fill="#6C743E" d="M136.229,38.212c-1.875-0.699-1.646,2.105-3.209,1.926
			c0.219-1.367,0.441-2.734,0.662-4.104l-0.014,0.033c0.293-0.285,0.584-0.57,0.877-0.855
			C136.467,35.449,137.447,36.212,136.229,38.212z"/>
		<path fill-rule="evenodd" clip-rule="evenodd" fill="#B0BD8B" d="M134.545,35.212c-0.293,0.285-0.584,0.57-0.877,0.855
			c-0.236-0.502-0.475-1.004-0.713-1.506c0.24-0.031,0.48-0.053,0.723-0.062c0.205,0.098,0.42,0.139,0.648,0.123
			C134.459,34.796,134.533,34.994,134.545,35.212z"/>
		<path fill-rule="evenodd" clip-rule="evenodd" fill="#6C743E" d="M134.326,34.623c-0.229,0.016-0.443-0.025-0.648-0.123
			c0.252-0.23,0.504-0.463,0.754-0.693C134.396,34.078,134.361,34.351,134.326,34.623z"/>
		<path fill-rule="evenodd" clip-rule="evenodd" fill="#B0BD8B" d="M118.314,55.357c0.4-0.285,0.764-0.232,1.096,0.117
			C119.045,55.435,118.682,55.396,118.314,55.357z"/>
		<path fill-rule="evenodd" clip-rule="evenodd" fill="#4C3E20" d="M101.396,32.296c0.033-1.744,0.07-3.488,0.105-5.232
			c2.965-1.281,3.764,1.438,5.27,2.848c-0.355,1.879-0.215,4.486-3.312,2.008C103.102,31.632,102.1,32.15,101.396,32.296z"/>
		<path fill-rule="evenodd" clip-rule="evenodd" fill="#495526" d="M112.756,32.46c1.754,0.221,3.512,0.439,5.27,0.658
			c0.668,1.168,1.656,2.219,1.363,3.736c-2.059-0.443-3.758-2.229-6.094-1.633C112.475,34.427,112.713,33.423,112.756,32.46z"/>
		<path fill-rule="evenodd" clip-rule="evenodd" fill="#E5ECB1" d="M117.568,40.601c-0.572,2.426,0.582,2.672,2.711,3.09
			c3.17,0.619,5.984,2.281,9.504,0.826c1.715-0.707,4.516,2.861,4.445,4.975c-0.025,0.725-0.189,1.229-1.004,1.191
			c-0.492-0.023-1.398-0.217-1.402-0.207c-0.791,4.447-3.941,0.82-5.812,1.672c-2.354,1.072-5.041,0.291-7.629,1.178
			c-2.166,0.744-2.439-2.082-2.596-3.645c-0.295-2.951-0.215-5.924-0.775-8.877c-0.213-1.117-0.898-3.291,0.834-3.477
			C117.926,37.105,117.979,39.005,117.568,40.601z"/>
		<path fill-rule="evenodd" clip-rule="evenodd" fill="#B0BD8B" d="M133.682,36.035c-0.221,1.369-0.443,2.736-0.662,4.104
			c-2.252,2.059-4.615,1.268-6.982,0.268C127.238,36.591,131.398,37.958,133.682,36.035z"/>
		<path fill-rule="evenodd" clip-rule="evenodd" fill="#6C743E" d="M119.389,36.855c0.293-1.518-0.695-2.568-1.363-3.736
			c1.945-0.422,3.113,1.703,4.986,1.512c0.346,0.609,0.693,1.221,1.041,1.83c-0.141,0.922-0.078,1.912-0.906,2.594
			C121.252,39.419,120.17,38.394,119.389,36.855z"/>
		<path fill-rule="evenodd" clip-rule="evenodd" fill="#E5ECB1" d="M88.996,80.839c-0.287-6.781-0.67-13.539,0.156-20.293
			c0.096-0.775,0.434-0.748,0.896-0.619c0.742,0.207,1.812-0.115,1.801,1.309C91.789,67.898,91.01,74.447,88.996,80.839z"/>
		<path fill-rule="evenodd" clip-rule="evenodd" fill="#D48E54" d="M124.65,12.203c0.568-2.08-1.613-5.373,2.578-5.852
			C127.365,8.74,127.232,11.011,124.65,12.203z"/>
		<path fill-rule="evenodd" clip-rule="evenodd" fill="#60462F" d="M106.801,24.71c-0.455-0.707-0.906-1.414-1.357-2.119
			c1.271-4.363,3.996-5.131,7.352-2.074c-0.088,0.562-0.176,1.125-0.266,1.693C111.303,24.615,108.643,23.726,106.801,24.71z"/>
		<path fill-rule="evenodd" clip-rule="evenodd" fill="#B0BD8B" d="M112.529,22.208c0.09-0.566,0.178-1.129,0.266-1.691
			c0.543-0.365,1.088-0.732,1.635-1.102c0.725,0.266,1.014,0.818,1.029,1.553c-1.242,0.975,0.051,2.879-1.387,3.779
			C112.217,24.718,113.623,22.705,112.529,22.208z"/>
		<path fill-rule="evenodd" clip-rule="evenodd" fill="#D48E54" d="M114.072,24.748c1.438-0.9,0.145-2.805,1.387-3.779
			c1.82-0.01,1.83,2.9,3.934,2.439c0.254,0.457,0.512,0.914,0.768,1.373c1.316,2.184,2.635,4.367,3.951,6.553
			c-0.34,0.117-0.678,0.234-1.012,0.35c-2.188-0.152-3.934-1.424-5.836-2.303C117.795,26.738,114.332,26.845,114.072,24.748z"/>
		<path fill-rule="evenodd" clip-rule="evenodd" fill="#A4573F" d="M120.16,24.781c-0.256-0.459-0.514-0.916-0.768-1.373
			c-0.137-1.746,0.789-3.145,1.51-4.609c3.73,1.273,1.865,3.832,1.398,6.072C121.586,24.841,120.873,24.81,120.16,24.781z"/>
		<path fill-rule="evenodd" clip-rule="evenodd" fill="#E5ECB1" d="M114.072,24.748c0.26,2.098,3.723,1.99,3.191,4.633
			c-4.143,0.754-9.154-1.48-10.465-4.67c1.844-0.984,4.504-0.096,5.73-2.5C113.623,22.705,112.217,24.718,114.072,24.748z"/>
		<path fill-rule="evenodd" clip-rule="evenodd" fill="#D1DCA8" d="M123.1,31.683c0.334-0.115,0.672-0.232,1.012-0.35
			c0.484,0.352,0.988,0.684,1.449,1.064c1.039,0.859,2.16,2.008,1.727,3.275c-0.459,1.338-2.066,0.793-3.234,0.789
			c-0.348-0.611-0.695-1.223-1.041-1.832C123.041,33.65,123.07,32.666,123.1,31.683z"/>
	</g>
</g>
</svg>
